<svg xmlns="http://www.w3.org/2000/svg" width="165.278" height="96.336" viewBox="0 0 165.278 96.336">
  <path id="Path_28220" data-name="Path 28220" d="M45.024,12.056c-6.964,3.7-12.075,9.9-16.741,16.291S19.659,42.4,18.766,52.114C31.351,48.09,42.211,56.2,40.935,69.237c-.511,5.43-5.561,8.3-11.887,6.835-7.408-1.788-12.264-8.37-14.118-15.4-6.387,7.283-11.436,22.489-7.6,35.97,5.622-4.344,15.205-2.938,20.316,1.726,2.874,2.619,5.687,6.773,5.493,10.8-.189,4.792-3.768,7.731-8.817,7.731-8.43.064-14.95-5.878-17.886-11.564-5.943,15.908-.066,34.692,6.322,45.425a25.036,25.036,0,0,0,1.536,2.556c.572.767,1.6,1.214,1.787,2.237-2.3-.383-3.961-2.556-5.238-4.281a53.712,53.712,0,0,1-8.879-19.295c-2.43-9.647-3.45-23.895,2.044-31.369A35.6,35.6,0,0,1,1.193,89.49C.237,73.9,5.793,61.762,13.971,54.99,14.421,33.331,26.3,21,38.57,10.97c-2.3.255-8.113,2.938-8.755-.321C29.37,8.349,32.5,7.071,34.1,6.37a38.257,38.257,0,0,1,6.516-2.045C44.7,3.239,49.5,1.514,53.454.172a3.532,3.532,0,0,1,4.6,3.322c-.061,2.045-1.787,2.748-2.748,3.962-2.746,3.769-5.044,10.413-7.281,13.608-1.087,1.6-5.177,5.559-6.964,2.556-.894-1.533-.194-4.664.317-6.005.832-2.045,2.813-3.769,3.645-5.558m-26.258,45.3h0c-.449,1.6,1.339,5.877,2.042,7.283,1.981,3.9,6.326,8.049,11.886,7.921,7.475-.127,5.044-11.308,1.915-14.567-1.981-2.045-6.326-3.386-9.967-3-1.787.192-5.432.7-5.876,2.364m5.876,55.775h0c3-.255,4.79-2.556,4.218-5.749-1.215-7.028-13.867-13.992-19.933-6.326,2.17,5.814,7.919,12.651,15.715,12.075" transform="matrix(-0.259, -0.966, 0.966, -0.259, 15.026, 96.336)" fill="#e9eaef" fill-rule="evenodd"/>
</svg>
