<svg xmlns="http://www.w3.org/2000/svg" xmlns:xlink="http://www.w3.org/1999/xlink" width="57" height="57" viewBox="0 0 57 57">
  <defs>
    <clipPath id="clip-path">
      <rect id="Rectangle_7907" data-name="Rectangle 7907" width="27.466" height="32.935" fill="none"/>
    </clipPath>
    <clipPath id="clip-path-3">
      <rect id="Rectangle_7900" data-name="Rectangle 7900" width="24.046" height="24.354" fill="none"/>
    </clipPath>
    <clipPath id="clip-path-5">
      <rect id="Rectangle_7904" data-name="Rectangle 7904" width="9.1" height="3.44" fill="none"/>
    </clipPath>
    <clipPath id="clip-path-6">
      <rect id="Rectangle_7905" data-name="Rectangle 7905" width="8.969" height="2.146" fill="none"/>
    </clipPath>
  </defs>
  <g id="Group_16878" data-name="Group 16878" transform="translate(-1211.244 -1046.5)">
    <path id="Union_1" data-name="Union 1" d="M18.5,50.948c-3.225-1.34-7.863-.716-10.3-3.149-2.424-2.43-1.812-7.062-3.148-10.3C3.758,34.388,0,31.58,0,28s3.758-6.389,5.052-9.507C6.389,15.266,5.776,10.631,8.2,8.2c2.439-2.433,7.078-1.806,10.3-3.14C21.614,3.761,24.42,0,28,0s6.384,3.761,9.5,5.058c3.236,1.334,7.869.707,10.3,3.143s1.806,7.065,3.134,10.3C52.245,21.609,56,24.42,56,28s-3.755,6.389-5.062,9.5c-1.328,3.237-.707,7.869-3.134,10.3-2.448,2.433-7.068,1.809-10.3,3.149C34.388,52.236,31.586,56,28,56S21.614,52.236,18.5,50.948Z" transform="translate(1211.744 1047)" fill="#d9ffe7" stroke="rgba(0,0,0,0)" stroke-width="1"/>
    <g id="Group_22455" data-name="Group 22455" transform="translate(1226.011 1056.997)">
      <g id="Group_22454" data-name="Group 22454" clip-path="url(#clip-path)">
        <g id="Group_22445" data-name="Group 22445">
          <g id="Group_22444" data-name="Group 22444" clip-path="url(#clip-path)">
            <path id="Path_22346" data-name="Path 22346" d="M14.292,24.231.245,9.373A.39.39,0,0,1,.26,8.821L9.479.106a.39.39,0,0,1,.551.015L24.077,14.979a.39.39,0,0,1-.015.552l-9.219,8.715a.39.39,0,0,1-.551-.016" transform="translate(-0.126 0.001)" fill="#50e888"/>
            <g id="Group_22443" data-name="Group 22443" transform="translate(0.013)" opacity="0.3">
              <g id="Group_22442" data-name="Group 22442">
                <g id="Group_22441" data-name="Group 22441" clip-path="url(#clip-path-3)">
                  <path id="Path_22347" data-name="Path 22347" d="M14.292,24.231.245,9.373A.39.39,0,0,1,.26,8.821L9.479.106a.39.39,0,0,1,.551.015L24.077,14.979a.39.39,0,0,1-.015.552l-9.219,8.715a.39.39,0,0,1-.551-.016" transform="translate(-0.138 0.001)"/>
                </g>
              </g>
            </g>
            <path id="Path_22348" data-name="Path 22348" d="M89.551,15.491,75.71.85a.54.54,0,0,0-.763-.021L72.328,3.3a.215.215,0,0,0-.065.193A5.952,5.952,0,0,0,74.82,7.139a25.505,25.505,0,0,0,5,2.3,9.382,9.382,0,0,1,4.422,3.151c.961,1.443,1.189,3.234,1.677,4.9a9.478,9.478,0,0,0,.494,1.323.216.216,0,0,0,.344.067l2.776-2.624a.54.54,0,0,0,.021-.763" transform="translate(-65.702 -0.619)" fill="#50e888"/>
            <path id="Path_22349" data-name="Path 22349" d="M99.754,37.857c-.125.118-.291.087-.471-.1l-.354-.375.724-.685.335.354c.171.181.184.345.071.452a.24.24,0,0,1-.25.054.246.246,0,0,1-.054.3m-.07-.876-.171.161.157.167c.077.082.148.1.205.045s.043-.125-.034-.206Zm-.072.691c.061-.058.046-.132-.036-.219l-.185-.2-.179.169.185.2c.082.087.153.108.215.049" transform="translate(-89.95 -33.365)" fill="#fff"/>
            <path id="Path_22350" data-name="Path 22350" d="M106.872,48.7l-.318-.336-.216.082-.162-.172,1.029-.362.157.166-.418,1.008-.166-.176Zm.077-.173.169-.377-.386.147Z" transform="translate(-96.541 -43.569)" fill="#fff"/>
            <path id="Path_22351" data-name="Path 22351" d="M116.767,54.8l-.724.685-.13-.138.1-.777-.44.416-.157-.166.724-.685.131.139-.1.775.44-.416Z" transform="translate(-104.941 -49.221)" fill="#fff"/>
            <path id="Path_22352" data-name="Path 22352" d="M124.65,64.017h-.193l-.183.173-.158-.167.724-.685L125,63.5l-.338.32h.641l.176.186-.606.005-.1.7-.185-.2Z" transform="translate(-112.853 -57.59)" fill="#fff"/>
            <path id="Path_22353" data-name="Path 22353" d="M67.975,72.486l-.126-.133-.175.165-.065-.068.175-.165-.355-.375.049-.047.774-.064.072.076-.75.066.273.289L68,72.084l.063.066-.154.145.126.133Z" transform="translate(-61.311 -65.283)" fill="#fff"/>
            <path id="Path_22354" data-name="Path 22354" d="M73.03,75.556c-.111.1-.273.105-.425-.055a.476.476,0,0,1-.141-.32l.086-.018a.4.4,0,0,0,.118.279c.1.11.213.122.3.044s.079-.181-.038-.3l-.045-.047.05-.048.4-.034-.321-.34.061-.057.4.427-.048.046-.414.036a.263.263,0,0,1,.013.392" transform="translate(-65.888 -67.88)" fill="#fff"/>
            <path id="Path_22355" data-name="Path 22355" d="M78.642,82.015a.284.284,0,0,1-.429-.051.472.472,0,0,1-.14-.319l.086-.018a.4.4,0,0,0,.116.277c.107.113.219.121.3.044s.088-.184-.071-.353l-.134-.141.366-.281.344.364-.061.057-.287-.3-.233.177.081.085c.189.2.182.351.065.462" transform="translate(-70.988 -73.807)" fill="#fff"/>
            <path id="Path_22356" data-name="Path 22356" d="M85.215,89.075a.285.285,0,0,1-.419-.034c-.167-.177-.135-.388.075-.587a.411.411,0,0,1,.631-.021.42.42,0,0,1,.113.192l-.081.025a.338.338,0,0,0-.586-.137c-.015.014-.033.033-.051.054a.292.292,0,0,1,.306.1.277.277,0,0,1,.013.413m-.066-.066a.2.2,0,0,0-.015-.3.2.2,0,1,0-.283.277.2.2,0,0,0,.3.026" transform="translate(-77.004 -80.283)" fill="#fff"/>
            <path id="Path_22357" data-name="Path 22357" d="M99.525,106.191l.059-.356-.36.038-.072-.076.443-.045.065-.418.072.076-.054.335.337-.035.07.074-.421.042-.068.442Z" transform="translate(-90.154 -95.776)" fill="#fff"/>
            <path id="Path_22358" data-name="Path 22358" d="M104.807,111.779l.059-.356-.36.038-.072-.076.443-.045.065-.418.072.076-.054.335.337-.035.07.074-.421.042-.068.442Z" transform="translate(-94.957 -100.856)" fill="#fff"/>
            <path id="Path_22359" data-name="Path 22359" d="M110.088,117.365l.059-.356-.36.038-.072-.076.443-.045.065-.418.072.076-.054.335.337-.035.07.074-.421.042-.068.442Z" transform="translate(-99.759 -105.935)" fill="#fff"/>
            <path id="Path_22360" data-name="Path 22360" d="M115.37,122.952l.059-.356-.36.038-.072-.076.443-.045.065-.418.072.076-.054.335.337-.035.07.074-.421.042-.068.442Z" transform="translate(-104.562 -111.016)" fill="#fff"/>
            <path id="Path_22361" data-name="Path 22361" d="M133.608,142.244l.059-.356-.36.038-.072-.076.443-.045.065-.418.072.076-.054.335.337-.035.07.074-.421.042-.068.442Z" transform="translate(-121.145 -128.556)" fill="#fff"/>
            <path id="Path_22362" data-name="Path 22362" d="M138.89,147.829l.059-.356-.36.038-.072-.076.443-.045.065-.418.072.076-.054.335.337-.035.07.074-.421.042-.068.442Z" transform="translate(-125.947 -133.635)" fill="#fff"/>
            <path id="Path_22363" data-name="Path 22363" d="M144.172,153.417l.059-.356-.36.038-.072-.076.443-.045.065-.418.072.076-.054.335.337-.035.07.074-.421.042-.068.442Z" transform="translate(-130.75 -138.716)" fill="#fff"/>
            <path id="Path_22364" data-name="Path 22364" d="M149.453,159l.059-.356-.36.038-.072-.076.443-.045.065-.418.072.076-.054.335.337-.035.07.074-.421.042-.068.442Z" transform="translate(-135.552 -143.795)" fill="#fff"/>
            <path id="Path_22365" data-name="Path 22365" d="M169.583,175.734l-.665.628-.065-.068.6-.571-.148-.157.061-.057Z" transform="translate(-153.531 -159.581)" fill="#fff"/>
            <path id="Path_22366" data-name="Path 22366" d="M172.233,180.488c-.111.105-.273.105-.425-.055a.476.476,0,0,1-.141-.32l.086-.018a.4.4,0,0,0,.118.279c.1.11.213.122.3.044s.079-.181-.038-.3l-.045-.047.05-.048.4-.034-.321-.34.061-.057.4.427-.048.046-.414.036a.263.263,0,0,1,.013.392" transform="translate(-156.089 -163.29)" fill="#fff"/>
            <path id="Path_22367" data-name="Path 22367" d="M179.147,190.078l-.126-.133-.175.165-.065-.068.175-.165-.355-.375.049-.047.774-.064.072.076-.75.066.273.289.154-.145.063.066-.154.145.126.133Z" transform="translate(-162.394 -172.204)" fill="#fff"/>
            <path id="Path_22368" data-name="Path 22368" d="M183.666,194.051l-.061.058-.441-.466.048-.046.532.02a.3.3,0,0,0,.249-.066c.077-.073.073-.172-.023-.273a.31.31,0,0,0-.245-.111l0-.088a.411.411,0,0,1,.318.146c.128.135.14.285.029.39a.377.377,0,0,1-.311.087l-.436-.016Z" transform="translate(-166.542 -175.557)" fill="#fff"/>
            <path id="Path_22369" data-name="Path 22369" d="M46.024,84.819a.24.24,0,0,1,.394.2l-.088-.006a.14.14,0,0,0-.038-.115.14.14,0,1,0-.2.192.139.139,0,0,0,.113.044v.088a.24.24,0,0,1-.179-.4" transform="translate(-41.782 -77.065)" fill="#fff"/>
            <path id="Path_22370" data-name="Path 22370" d="M48.472,89.054l-.139-.147-.095.036-.071-.075.451-.158.069.073-.183.442-.073-.077Zm.034-.076.074-.165-.169.064Z" transform="translate(-43.796 -80.659)" fill="#fff"/>
            <path id="Path_22371" data-name="Path 22371" d="M52.413,91.943l.03-.145,0,0-.06-.064-.088.083-.069-.073.317-.3.13.137a.163.163,0,0,1,.015.246.142.142,0,0,1-.162.029l-.035.168Zm.192-.312-.057-.06-.111.1.057.06c.042.045.085.048.119.015s.034-.075-.009-.12" transform="translate(-47.483 -83.143)" fill="#fff"/>
            <path id="Path_22372" data-name="Path 22372" d="M55.782,95.72l.079-.027a.257.257,0,0,0,.066.136c.041.043.072.047.092.029.059-.056-.156-.2-.038-.313.054-.051.14-.05.225.04a.293.293,0,0,1,.076.137l-.077.03a.246.246,0,0,0-.058-.112c-.041-.044-.073-.045-.093-.026-.058.055.156.2.04.312-.053.05-.14.049-.226-.042a.311.311,0,0,1-.085-.164" transform="translate(-50.72 -86.843)" fill="#fff"/>
            <path id="Path_22373" data-name="Path 22373" d="M60.643,100.012l-.317.3-.069-.073.13-.123-.136-.144-.13.123-.069-.073.317-.3.069.073-.125.118.136.144.125-.118Z" transform="translate(-54.601 -90.672)" fill="#fff"/>
            <path id="Path_22374" data-name="Path 22374" d="M64.7,104.572a.239.239,0,1,1,0,.329.226.226,0,0,1,0-.329m.258.273a.137.137,0,1,0-.2,0,.133.133,0,0,0,.2,0" transform="translate(-58.765 -95.026)" fill="#fff"/>
            <path id="Path_22375" data-name="Path 22375" d="M68.178,107.983l.069.073-.257.243.15.159-.06.057-.22-.232Z" transform="translate(-61.703 -98.184)" fill="#fff"/>
            <path id="Path_22376" data-name="Path 22376" d="M71.034,111l.136.144a.219.219,0,1,1-.317.3l-.136-.144Zm-.124.383a.135.135,0,1,0,.2-.186l-.063-.067-.2.186Z" transform="translate(-64.3 -100.931)" fill="#fff"/>
            <path id="Path_22377" data-name="Path 22377" d="M74.913,115.624l-.059.056-.232-.246.317-.3.227.24-.059.056-.158-.167-.069.065.139.147-.057.054-.139-.147-.073.069Z" transform="translate(-67.85 -104.686)" fill="#fff"/>
            <path id="Path_22378" data-name="Path 22378" d="M77.986,118.991l.03-.145,0,0-.06-.064-.088.083-.069-.073.317-.3.13.137a.163.163,0,0,1,.015.246.142.142,0,0,1-.162.029l-.035.168Zm.192-.312-.057-.06-.111.1.057.06c.042.045.085.048.119.015s.034-.075-.009-.12" transform="translate(-70.735 -107.736)" fill="#fff"/>
            <path id="Path_22379" data-name="Path 22379" d="M32.718,93.606l.169-.011a.193.193,0,0,0,.04.177c.054.057.116.054.183-.009l.291-.275-.2-.215.114-.107.336.355-.4.375a.272.272,0,0,1-.433-.007.338.338,0,0,1-.1-.283" transform="translate(-29.746 -84.711)" fill="#fff"/>
            <path id="Path_22380" data-name="Path 22380" d="M37.675,103.292a.117.117,0,0,1,.16.169.117.117,0,1,1-.16-.169" transform="translate(-34.222 -93.889)" fill="#fff"/>
            <path id="Path_22381" data-name="Path 22381" d="M42.554,101.09l-.8.378-.144-.152.287-.526-.545.252-.143-.151.421-.778.139.147-.3.544.566-.262.124.131-.3.549.568-.267Z" transform="translate(-37.47 -91.028)" fill="#fff"/>
            <path id="Path_22382" data-name="Path 22382" d="M50.69,111.26a.107.107,0,0,1,.156.013.105.105,0,0,1,.007.154.117.117,0,0,1-.163-.167m-.126.15.129.136-.47.444-.129-.136Z" transform="translate(-45.549 -101.138)" fill="#fff"/>
            <rect id="Rectangle_7901" data-name="Rectangle 7901" width="0.891" height="0.187" transform="translate(4.794 10.979) rotate(-43.39)" fill="#fff"/>
            <rect id="Rectangle_7902" data-name="Rectangle 7902" width="0.891" height="0.187" transform="translate(5.042 11.241) rotate(-43.39)" fill="#fff"/>
            <path id="Path_22383" data-name="Path 22383" d="M58.893,119.937a.107.107,0,0,1,.156.013.105.105,0,0,1,.007.154.117.117,0,0,1-.163-.167m-.126.15.129.136-.47.444-.129-.136Z" transform="translate(-53.008 -109.028)" fill="#fff"/>
            <path id="Path_22384" data-name="Path 22384" d="M62.179,125.713l-.268.253-.121-.128.058-.055a.212.212,0,0,1-.2-.081.209.209,0,0,1-.024-.31c.083-.078.2-.074.331.069l.1.108c.059-.055.059-.122-.01-.2a.311.311,0,0,0-.172-.094l.049-.139a.5.5,0,0,1,.248.149.267.267,0,0,1,.005.423m-.248-.023.048-.045-.088-.093c-.06-.064-.1-.062-.134-.032s-.029.083.016.13a.138.138,0,0,0,.159.04" transform="translate(-55.979 -113.785)" fill="#fff"/>
            <path id="Path_22385" data-name="Path 22385" d="M67.655,131.677l-.269.254-.129-.136.248-.234c.076-.072.079-.139.027-.194s-.138-.067-.221.012l-.236.223-.129-.136.248-.234c.076-.072.08-.137.027-.194s-.137-.066-.221.013l-.236.223-.129-.136.47-.444.123.13-.054.051a.262.262,0,0,1,.2.09.241.241,0,0,1,.069.227.29.29,0,0,1,.237.1.25.25,0,0,1-.026.389" transform="translate(-60.589 -118.834)" fill="#fff"/>
            <path id="Path_22386" data-name="Path 22386" d="M76.176,141.664l.141-.047a.441.441,0,0,0,.109.206c.059.063.1.071.125.046.077-.073-.27-.282-.082-.459.089-.084.228-.063.357.074a.53.53,0,0,1,.13.22l-.14.046a.37.37,0,0,0-.093-.168c-.058-.061-.1-.069-.126-.046-.08.076.266.286.08.461-.087.082-.226.06-.359-.081a.554.554,0,0,1-.142-.251" transform="translate(-69.263 -128.532)" fill="#fff"/>
            <path id="Path_22387" data-name="Path 22387" d="M134.277,201.075a.367.367,0,1,1-.068.561.377.377,0,0,1,.068-.561m.361.382c.139-.131.15-.235.083-.305s-.17-.064-.309.067-.15.235-.084.3.171.065.309-.066" transform="translate(-121.942 -182.694)" fill="#fff"/>
            <path id="Path_22388" data-name="Path 22388" d="M140.759,208.363a.289.289,0,0,1-.422-.039.362.362,0,0,1,.045-.56.409.409,0,0,1,.624,0,.453.453,0,0,1,.119.21l-.153.046a.277.277,0,0,0-.078-.143.223.223,0,0,0-.34,0,.284.284,0,0,1,.2.1.267.267,0,0,1,.009.39m-.137-.13a.127.127,0,0,0-.007-.19.132.132,0,0,0-.192-.019.129.129,0,0,0,.011.193.126.126,0,0,0,.187.016" transform="translate(-127.499 -188.779)" fill="#fff"/>
            <path id="Path_22389" data-name="Path 22389" d="M144.085,213.293l.115.121-1.095.489-.115-.121Z" transform="translate(-130.014 -193.937)" fill="#fff"/>
            <path id="Path_22390" data-name="Path 22390" d="M148.666,217.4l-.115.109-.437-.462.092-.087.445.025a.207.207,0,0,0,.173-.043c.048-.045.045-.105-.017-.17a.206.206,0,0,0-.181-.069l-.031-.166a.391.391,0,0,1,.343.135c.129.136.145.293.034.4a.336.336,0,0,1-.289.08l-.266-.015Z" transform="translate(-134.673 -196.883)" fill="#fff"/>
            <path id="Path_22391" data-name="Path 22391" d="M155.314,225.276l-.094-.1-.128.121-.13-.138.128-.121-.311-.329.1-.09.66-.078.14.148-.62.08.155.164.114-.108.126.134-.114.108.094.1Z" transform="translate(-140.733 -204.164)" fill="#fff"/>
            <path id="Path_22392" data-name="Path 22392" d="M171.146,128.694a1.315,1.315,0,0,0-.253-1.664,1.65,1.65,0,0,0-.482-.316,1.02,1.02,0,0,0-1.26.369,1.4,1.4,0,0,0,.02,1.138,1.468,1.468,0,0,0,.746.929,1.033,1.033,0,0,0,1.083-.272,1.217,1.217,0,0,0,.146-.184" transform="translate(-153.698 -115.142)" fill="#4ee385"/>
          </g>
        </g>
        <g id="Group_22453" data-name="Group 22453">
          <g id="Group_22452" data-name="Group 22452" clip-path="url(#clip-path)">
            <path id="Path_22393" data-name="Path 22393" d="M38.224,153.337v15.975a1.583,1.583,0,0,1-1.583,1.583H13.435a1.583,1.583,0,0,1-1.583-1.583V153.337a1.583,1.583,0,0,1,1.583-1.583H36.641a1.583,1.583,0,0,1,1.583,1.583" transform="translate(-10.776 -137.983)" fill="#50e888"/>
            <path id="Path_22394" data-name="Path 22394" d="M37.987,153.12s0-.019,0-.057a1.263,1.263,0,0,0-.016-.169,1.556,1.556,0,0,0-.232-.62,1.633,1.633,0,0,0-.324-.367,1.6,1.6,0,0,0-.516-.283c-.051-.018-.1-.028-.158-.043s-.111-.018-.168-.027l-.176-.008H35.42l-9.462.008-6.534,0H13.4a2.477,2.477,0,0,0-.482.027,1.629,1.629,0,0,0-.455.159,1.656,1.656,0,0,0-.385.294,1.509,1.509,0,0,0-.279.4,1.47,1.47,0,0,0-.142.469,3.953,3.953,0,0,0-.016.5q0,.252,0,.506,0,1.014,0,2.051,0,2.074,0,4.231c0,2.874,0,5.849,0,8.9a1.571,1.571,0,0,0,.387,1.028,1.54,1.54,0,0,0,.961.517,4.838,4.838,0,0,0,.56.016H27.9l7.5,0h.873a2.172,2.172,0,0,0,.426-.028,1.541,1.541,0,0,0,.4-.134,1.394,1.394,0,0,0,.345-.232,1.547,1.547,0,0,0,.523-1.078c.01-1.088,0-2.136.006-3.134,0-3.995.006-7.227.008-9.462,0-1.117,0-1.984,0-2.572,0-.294,0-.518,0-.669s0-.228,0-.228,0,.077,0,.228,0,.375,0,.669c0,.589,0,1.456,0,2.572,0,2.234,0,5.467.008,9.462,0,1,.006,2.044,0,3.136a1.585,1.585,0,0,1-.534,1.1,1.793,1.793,0,0,1-.168.132,1.77,1.77,0,0,1-.186.106,1.581,1.581,0,0,1-.408.138,2.218,2.218,0,0,1-.433.029H35.4l-7.5,0H13.546a4.853,4.853,0,0,1-.566-.016,1.587,1.587,0,0,1-.99-.533,1.619,1.619,0,0,1-.4-1.059c0-3.048,0-6.023,0-8.9q0-2.155,0-4.231,0-1.037,0-2.051,0-.254,0-.506a3.986,3.986,0,0,1,.017-.5,1.513,1.513,0,0,1,.146-.483,1.558,1.558,0,0,1,.286-.411,1.7,1.7,0,0,1,.4-.3,1.676,1.676,0,0,1,.468-.163l.122-.019.123-.007c.082,0,.163,0,.244,0h6.028l6.534,0,9.462.008h.973l.177.009c.057.009.114.016.169.028s.108.026.159.044a1.608,1.608,0,0,1,.52.288,1.635,1.635,0,0,1,.324.371,1.546,1.546,0,0,1,.229.625,1.188,1.188,0,0,1,.014.17c0,.038,0,.057,0,.057" transform="translate(-10.539 -137.765)" fill="#263238"/>
            <path id="Path_22395" data-name="Path 22395" d="M292.277,164.522a1.582,1.582,0,1,1,.272.024.8.8,0,0,1-.272-.024" transform="translate(-265.753 -149.57)" fill="#263238"/>
            <path id="Path_22396" data-name="Path 22396" d="M267.8,164.522a6.546,6.546,0,0,1,1.11,0,6.542,6.542,0,0,1-1.11,0" transform="translate(-243.499 -149.57)" fill="#263238"/>
            <path id="Path_22397" data-name="Path 22397" d="M243.326,164.522a6.547,6.547,0,0,1,1.111,0,6.543,6.543,0,0,1-1.111,0" transform="translate(-221.245 -149.57)" fill="#263238"/>
            <path id="Path_22398" data-name="Path 22398" d="M218.851,164.522a6.547,6.547,0,0,1,1.111,0,6.543,6.543,0,0,1-1.111,0" transform="translate(-198.991 -149.57)" fill="#263238"/>
            <path id="Path_22399" data-name="Path 22399" d="M194.376,164.522a6.546,6.546,0,0,1,1.11,0,6.542,6.542,0,0,1-1.11,0" transform="translate(-176.737 -149.57)" fill="#263238"/>
            <path id="Path_22400" data-name="Path 22400" d="M169.9,164.522a6.547,6.547,0,0,1,1.111,0,6.543,6.543,0,0,1-1.111,0" transform="translate(-154.482 -149.57)" fill="#263238"/>
            <path id="Path_22401" data-name="Path 22401" d="M145.425,164.522a6.547,6.547,0,0,1,1.111,0,6.543,6.543,0,0,1-1.111,0" transform="translate(-132.228 -149.57)" fill="#263238"/>
            <path id="Path_22402" data-name="Path 22402" d="M120.95,164.522a6.547,6.547,0,0,1,1.111,0,6.543,6.543,0,0,1-1.111,0" transform="translate(-109.974 -149.57)" fill="#263238"/>
            <path id="Path_22403" data-name="Path 22403" d="M96.474,164.522a6.547,6.547,0,0,1,1.111,0,6.543,6.543,0,0,1-1.111,0" transform="translate(-87.719 -149.57)" fill="#263238"/>
            <path id="Path_22404" data-name="Path 22404" d="M72,164.522a6.547,6.547,0,0,1,1.111,0,6.543,6.543,0,0,1-1.111,0" transform="translate(-65.465 -149.57)" fill="#263238"/>
            <path id="Path_22405" data-name="Path 22405" d="M47.524,164.522a6.547,6.547,0,0,1,1.111,0,6.543,6.543,0,0,1-1.111,0" transform="translate(-43.211 -149.57)" fill="#263238"/>
            <path id="Path_22406" data-name="Path 22406" d="M29.05,165.044a3.157,3.157,0,0,1-.024-.544l.024-.024h.212l.173.005a.081.081,0,1,1,0,.033l-.173.005H29.05l.023-.024a3.157,3.157,0,0,1-.024.544" transform="translate(-26.392 -149.548)" fill="#263238"/>
            <path id="Path_22407" data-name="Path 22407" d="M29.05,182.99a5.5,5.5,0,0,1,0-1.018,5.5,5.5,0,0,1,0,1.018" transform="translate(-26.392 -165.458)" fill="#263238"/>
            <path id="Path_22408" data-name="Path 22408" d="M29.05,205.419a5.5,5.5,0,0,1,0-1.018,5.5,5.5,0,0,1,0,1.018" transform="translate(-26.392 -185.852)" fill="#263238"/>
            <path id="Path_22409" data-name="Path 22409" d="M29.05,227.847a5.5,5.5,0,0,1,0-1.018,5.5,5.5,0,0,1,0,1.018" transform="translate(-26.392 -206.245)" fill="#263238"/>
            <path id="Path_22410" data-name="Path 22410" d="M29.05,250.276a5.5,5.5,0,0,1,0-1.018,5.5,5.5,0,0,1,0,1.018" transform="translate(-26.392 -226.638)" fill="#263238"/>
            <path id="Path_22411" data-name="Path 22411" d="M29.05,272.7a5.5,5.5,0,0,1,0-1.018,5.5,5.5,0,0,1,0,1.018" transform="translate(-26.392 -247.031)" fill="#263238"/>
            <path id="Path_22412" data-name="Path 22412" d="M29.05,295.132a5.5,5.5,0,0,1,0-1.018,5.5,5.5,0,0,1,0,1.018" transform="translate(-26.392 -267.424)" fill="#263238"/>
            <path id="Path_22413" data-name="Path 22413" d="M29.05,317.561a5.5,5.5,0,0,1,0-1.018,5.5,5.5,0,0,1,0,1.018" transform="translate(-26.392 -287.817)" fill="#263238"/>
            <path id="Path_22414" data-name="Path 22414" d="M29.572,339.516a3.161,3.161,0,0,1-.544.024L29,339.515h0v-.054c0-.018,0-.036,0-.054v-.1l.005-.173a.545.545,0,0,1,.017-.159.545.545,0,0,1,.017.159l.005.173v.1c0,.018,0,.036,0,.054v.054h0l-.024-.023a3.157,3.157,0,0,1,.544.024" transform="translate(-26.37 -308.21)" fill="#263238"/>
            <path id="Path_22415" data-name="Path 22415" d="M48.441,344.735a6.35,6.35,0,0,1-1.094,0,6.367,6.367,0,0,1,1.094,0" transform="translate(-43.05 -313.429)" fill="#263238"/>
            <path id="Path_22416" data-name="Path 22416" d="M72.562,344.735a6.351,6.351,0,0,1-1.095,0,6.368,6.368,0,0,1,1.095,0" transform="translate(-64.981 -313.429)" fill="#263238"/>
            <path id="Path_22417" data-name="Path 22417" d="M96.683,344.735a6.351,6.351,0,0,1-1.095,0,6.368,6.368,0,0,1,1.095,0" transform="translate(-86.914 -313.429)" fill="#263238"/>
            <path id="Path_22418" data-name="Path 22418" d="M120.8,344.735a6.35,6.35,0,0,1-1.094,0,6.367,6.367,0,0,1,1.094,0" transform="translate(-108.847 -313.429)" fill="#263238"/>
            <path id="Path_22419" data-name="Path 22419" d="M144.925,344.735a6.352,6.352,0,0,1-1.095,0,6.368,6.368,0,0,1,1.095,0" transform="translate(-130.778 -313.429)" fill="#263238"/>
            <path id="Path_22420" data-name="Path 22420" d="M169.045,344.735a6.35,6.35,0,0,1-1.094,0,6.367,6.367,0,0,1,1.094,0" transform="translate(-152.71 -313.429)" fill="#263238"/>
            <path id="Path_22421" data-name="Path 22421" d="M193.165,344.735a6.351,6.351,0,0,1-1.094,0,6.368,6.368,0,0,1,1.094,0" transform="translate(-174.641 -313.429)" fill="#263238"/>
            <path id="Path_22422" data-name="Path 22422" d="M217.287,344.735a6.351,6.351,0,0,1-1.095,0,6.368,6.368,0,0,1,1.095,0" transform="translate(-196.573 -313.429)" fill="#263238"/>
            <path id="Path_22423" data-name="Path 22423" d="M241.408,344.735a6.351,6.351,0,0,1-1.095,0,6.368,6.368,0,0,1,1.095,0" transform="translate(-218.505 -313.429)" fill="#263238"/>
            <path id="Path_22424" data-name="Path 22424" d="M265.529,344.735a6.35,6.35,0,0,1-1.094,0,6.367,6.367,0,0,1,1.094,0" transform="translate(-240.438 -313.429)" fill="#263238"/>
            <path id="Path_22425" data-name="Path 22425" d="M289.1,344.735a1.585,1.585,0,1,1-.272-.024.8.8,0,0,1,.272.024" transform="translate(-262.37 -313.429)" fill="#263238"/>
            <g id="Group_22448" data-name="Group 22448" transform="translate(1.075 24.387)" opacity="0.3">
              <g id="Group_22447" data-name="Group 22447">
                <g id="Group_22446" data-name="Group 22446" clip-path="url(#clip-path-5)">
                  <path id="Path_22426" data-name="Path 22426" d="M20.951,268.732a3.95,3.95,0,0,1-.269,1.456c-.274.549-.367.76-.943.971s-7.888,1.013-7.888,1.013V269.7Z" transform="translate(-11.851 -268.732)"/>
                </g>
              </g>
            </g>
            <g id="Group_22451" data-name="Group 22451" transform="translate(1.075 18.82)" opacity="0.3">
              <g id="Group_22450" data-name="Group 22450">
                <g id="Group_22449" data-name="Group 22449" clip-path="url(#clip-path-6)">
                  <path id="Path_22427" data-name="Path 22427" d="M20.82,209.528s.083-.926-2.241-1.27c-2.658-.393-6.728-.876-6.728-.876v1.752Z" transform="translate(-11.851 -207.382)"/>
                </g>
              </g>
            </g>
            <path id="Path_22428" data-name="Path 22428" d="M1.5,227.754h7.56a1.3,1.3,0,0,0,1.3-1.3v-3.384a1.3,1.3,0,0,0-1.3-1.3H1.5a1.3,1.3,0,0,0-1.3,1.3v3.384a1.3,1.3,0,0,0,1.3,1.3" transform="translate(-0.179 -201.647)" fill="#37a15e"/>
            <path id="Path_22429" data-name="Path 22429" d="M1.317,227.516l-.078,0a1.13,1.13,0,0,1-.226-.031,1.269,1.269,0,0,1-.345-.134,1.306,1.306,0,0,1-.641-.905,1.909,1.909,0,0,1-.022-.362q0-.188,0-.391c0-.54,0-1.155,0-1.834,0-.34,0-.7,0-1.067a1.312,1.312,0,0,1,.521-1.007,1.292,1.292,0,0,1,.561-.246,1.667,1.667,0,0,1,.314-.022h1.63l5.847,0a1.47,1.47,0,0,1,.389.058A1.318,1.318,0,0,1,9.9,222a1.322,1.322,0,0,1,.289.7c.009.128.006.252.006.377q0,.373,0,.74,0,.734,0,1.44,0,.353,0,.7c0,.116,0,.228,0,.344a1.374,1.374,0,0,1-.021.171,1.528,1.528,0,0,1-.045.166,1.322,1.322,0,0,1-.946.86,1.42,1.42,0,0,1-.159.028c-.053,0-.107.007-.16.008H7.94l-2.223,0L2.5,227.526l-.875,0-.228,0-.078,0,.078,0,.228,0,.875,0,3.219-.008,2.223,0h.61a2.689,2.689,0,0,0,.622-.036,1.28,1.28,0,0,0,.914-.833,1.882,1.882,0,0,0,.068-.668q0-.345,0-.7,0-.706,0-1.44,0-.367,0-.74c0-.124,0-.25-.006-.372a1.275,1.275,0,0,0-.279-.678,1.27,1.27,0,0,0-.616-.416,1.422,1.422,0,0,0-.375-.056l-5.847,0H1.4a1.614,1.614,0,0,0-.307.021,1.251,1.251,0,0,0-.544.238,1.275,1.275,0,0,0-.508.977c0,.37,0,.727,0,1.066,0,.679,0,1.294,0,1.834q0,.2,0,.391a1.9,1.9,0,0,0,.02.359,1.293,1.293,0,0,0,.966,1.034,1.206,1.206,0,0,0,.224.035l.077.006" transform="translate(0 -201.409)" fill="#263238"/>
            <path id="Path_22430" data-name="Path 22430" d="M54.445,235.421a2.175,2.175,0,1,0,2.175-2.175,2.175,2.175,0,0,0-2.175,2.175" transform="translate(-49.504 -212.079)" fill="#263238"/>
            <path id="Path_22431" data-name="Path 22431" d="M84.552,244.822a2.287,2.287,0,0,0,.519-.272,1.863,1.863,0,0,0,.439-.453,1.7,1.7,0,0,0,.235-1.479,1.863,1.863,0,0,0-.277-.567,2.289,2.289,0,0,0-.409-.419.137.137,0,0,1,.036.02,1.045,1.045,0,0,1,.1.068,1.641,1.641,0,0,1,.3.311,1.828,1.828,0,0,1,.292.575,1.712,1.712,0,0,1-.241,1.516,1.831,1.831,0,0,1-.456.456,1.642,1.642,0,0,1-.385.2,1.033,1.033,0,0,1-.113.035.135.135,0,0,1-.04.008" transform="translate(-76.879 -219.704)" fill="#fafafa"/>
          </g>
        </g>
      </g>
    </g>
  </g>
</svg>
