<svg width="154" height="48" viewBox="0 0 154 48" fill="none" xmlns="http://www.w3.org/2000/svg">
<g clip-path="url(#clip0_4822_26551)">
<path d="M83.007 32.6211C80.8044 32.6211 78.9366 31.8755 77.4579 30.4058C75.9792 28.9362 75.2299 27.0702 75.2299 24.8585C75.2299 22.6468 75.9792 20.7754 77.4579 19.2967C78.9366 17.818 80.8044 17.0669 83.007 17.0669C84.0553 17.062 85.0942 17.2644 86.0639 17.6624C86.9857 18.0373 87.8241 18.5909 88.5308 19.2913C89.2311 20.0037 89.7846 20.8468 90.1597 21.7726C90.5629 22.7519 90.7677 23.8014 90.7624 24.8603C90.7804 26.2543 90.4289 27.6281 89.7435 28.8421C89.085 30.0086 88.119 30.9721 86.9508 31.6275C85.745 32.2961 84.3857 32.6386 83.007 32.6211ZM83.007 20.9039C82.4969 20.8918 81.9899 20.9859 81.5182 21.1803C81.0464 21.3748 80.6203 21.6652 80.2669 22.0333C79.907 22.4083 79.6256 22.8513 79.4391 23.3364C79.2526 23.8216 79.1649 24.339 79.1809 24.8585C79.1681 25.3722 79.2575 25.8832 79.4439 26.362C79.6303 26.8409 79.9101 27.2778 80.2669 27.6475C80.6243 28.0071 81.0493 28.2924 81.5174 28.4871C81.9854 28.6818 82.4874 28.782 82.9944 28.782C83.5013 28.782 84.0033 28.6818 84.4714 28.4871C84.9395 28.2924 85.3644 28.0071 85.7219 27.6475C86.0823 27.2796 86.3654 26.8434 86.5547 26.3644C86.744 25.8854 86.8356 25.3734 86.8241 24.8585C86.8396 24.3388 86.7516 23.8212 86.5651 23.3359C86.3787 22.8505 86.0976 22.4071 85.7382 22.0315C85.3862 21.6642 84.9615 21.3742 84.4913 21.1801C84.0211 20.986 83.5156 20.8919 83.007 20.9039ZM66.1153 32.6211C63.9145 32.6211 62.0467 31.8755 60.568 30.4058C59.0893 28.9362 58.34 27.0702 58.34 24.8585C58.34 22.6468 59.0893 20.7754 60.568 19.2967C62.0467 17.818 63.9073 17.0669 66.1153 17.0669C67.1642 17.0621 68.2036 17.2644 69.1741 17.6624C70.0958 18.0373 70.9342 18.5909 71.6409 19.2913C72.3412 20.0037 72.8947 20.8468 73.2698 21.7726C73.673 22.7519 73.8778 23.8014 73.8725 24.8603C73.8905 26.2543 73.539 27.6281 72.8536 28.8421C72.1935 30.0046 71.2277 30.9642 70.0609 31.6166C68.8556 32.2893 67.4955 32.6355 66.1153 32.6211ZM66.1153 20.9039C65.6055 20.8918 65.0987 20.986 64.6273 21.1804C64.1558 21.3748 63.73 21.6653 63.377 22.0333C63.0171 22.4083 62.7357 22.8513 62.5492 23.3364C62.3627 23.8216 62.275 24.339 62.291 24.8585C62.2782 25.3722 62.3676 25.8832 62.554 26.362C62.7404 26.8409 63.0202 27.2778 63.377 27.6475C63.7344 28.0071 64.1594 28.2924 64.6275 28.4871C65.0956 28.6818 65.5975 28.782 66.1045 28.782C66.6114 28.782 67.1134 28.6818 67.5815 28.4871C68.0496 28.2924 68.4746 28.0071 68.832 27.6475C69.1924 27.2796 69.4755 26.8434 69.6648 26.3644C69.8541 25.8854 69.9457 25.3734 69.9342 24.8585C69.9488 24.3382 69.8595 23.8201 69.6715 23.3347C69.4835 22.8493 69.2005 22.4062 68.8392 22.0315C68.4883 21.6648 68.0648 21.3752 67.5959 21.1811C67.127 20.987 66.6227 20.8926 66.1153 20.9039ZM50.0779 32.6211C48.0219 32.6211 46.4436 31.823 45.3903 30.252L45.0591 29.7579V32.3171H41.023V10.859H45.0591V19.9447L45.3903 19.4524C46.4545 17.8687 48.0327 17.0669 50.0779 17.0669C51.3158 17.0622 52.5278 17.4209 53.5638 18.0986C54.6372 18.8007 55.5053 19.775 56.0795 20.922C56.6976 22.1324 57.0143 23.4741 57.0025 24.8332C57.0138 26.1922 56.6972 27.5338 56.0795 28.7443C55.5024 29.8934 54.6344 30.8712 53.5619 31.5804C52.5295 32.2652 51.3168 32.6274 50.0779 32.6211ZM49.0662 20.8749C48.5382 20.8645 48.0137 20.9607 47.5238 21.1579C47.034 21.3551 46.589 21.6491 46.2156 22.0224C45.839 22.3851 45.5412 22.8216 45.341 23.3046C45.1407 23.7876 45.0423 24.3068 45.0518 24.8296C45.0413 25.3535 45.1392 25.8741 45.3395 26.3584C45.5398 26.8427 45.8381 27.2804 46.2156 27.6439C46.5907 28.0139 47.0363 28.3049 47.526 28.4995C48.0156 28.6941 48.5394 28.7885 49.0662 28.7769C49.5895 28.7856 50.1092 28.6884 50.5941 28.4912C51.079 28.294 51.519 28.0009 51.8878 27.6294C52.2575 27.2618 52.5509 26.8247 52.7511 26.3432C52.9513 25.8618 53.0543 25.3455 53.0543 24.8241C53.0543 24.3027 52.9513 23.7865 52.7511 23.305C52.5509 22.8236 52.2575 22.3865 51.8878 22.0188C51.5193 21.6472 51.0792 21.3543 50.5942 21.1577C50.1092 20.9611 49.5894 20.8649 49.0662 20.8749ZM31.8125 32.6211C30.4173 32.634 29.0436 32.2774 27.8307 31.5877C26.6485 30.9117 25.6691 29.9311 24.9946 28.748C24.3011 27.5364 23.9419 26.1622 23.9539 24.7662C23.9335 23.7474 24.1228 22.7353 24.5101 21.7929C24.8975 20.8504 25.4745 19.9976 26.2055 19.2877C27.7004 17.8126 29.5592 17.0651 31.731 17.0651C33.0209 17.0573 34.2907 17.3847 35.416 18.0153C36.5351 18.6433 37.4654 19.5599 38.11 20.6695C38.7545 21.7792 39.0899 23.0413 39.081 24.3246C39.0816 24.7876 39.058 25.2504 39.0104 25.711H27.59L27.6226 25.9191C27.7449 26.8914 28.2281 27.7822 28.9764 28.4149C29.7398 29.0419 30.7036 29.3728 31.6912 29.347C32.5636 29.347 33.2894 29.166 33.8486 28.8258C34.3423 28.5426 34.7093 28.0817 34.8748 27.5371H38.8258C38.5713 28.9909 37.7662 30.2906 36.5779 31.166C35.2983 32.1306 33.6966 32.6211 31.8197 32.6211H31.8125ZM31.5229 20.2505C30.696 20.2288 29.8844 20.4758 29.2099 20.9546C28.571 21.4233 28.1076 22.1256 27.8343 23.0432L27.7638 23.2749H34.8676L34.8531 23.0794C34.824 22.6861 34.714 22.303 34.53 21.9542C34.3459 21.6053 34.0917 21.2983 33.7835 21.0523C33.1525 20.524 32.353 20.2396 31.5301 20.2505H31.5229ZM129.923 32.5433C129.191 32.5572 128.464 32.4228 127.785 32.1484C127.106 31.874 126.49 31.4651 125.973 30.9464C125.457 30.4277 125.05 29.8099 124.778 29.1301C124.507 28.4502 124.375 27.7225 124.392 26.9906C124.373 26.2538 124.504 25.5208 124.777 24.8362C125.05 24.1517 125.46 23.5299 125.981 23.0088C127.038 21.9818 128.454 21.4073 129.928 21.4073C131.401 21.4073 132.817 21.9818 133.874 23.0088C134.398 23.5282 134.811 24.1494 135.086 24.8342C135.362 25.5189 135.494 26.2527 135.476 26.9906C135.49 27.7236 135.356 28.4519 135.082 29.132C134.808 29.812 134.399 30.4297 133.881 30.9482C133.362 31.4666 132.744 31.8751 132.064 32.1492C131.384 32.4233 130.656 32.5573 129.923 32.5433ZM129.923 23.4667C129.469 23.4566 129.017 23.5418 128.598 23.7166C128.178 23.8915 127.8 24.1522 127.487 24.482C127.166 24.8146 126.915 25.2076 126.747 25.6383C126.58 26.069 126.5 26.5286 126.511 26.9906C126.5 27.4506 126.581 27.9082 126.75 28.3363C126.919 28.7644 127.172 29.1543 127.494 29.4828C127.814 29.8037 128.193 30.0584 128.612 30.2322C129.03 30.406 129.478 30.4954 129.931 30.4954C130.384 30.4954 130.832 30.406 131.251 30.2322C131.669 30.0584 132.049 29.8037 132.368 29.4828C133.003 28.8061 133.356 27.913 133.356 26.9851C133.356 26.0572 133.003 25.1642 132.368 24.4875C132.054 24.1584 131.676 23.8978 131.256 23.7222C130.836 23.5465 130.385 23.4595 129.93 23.4667H129.923ZM118.497 32.5433C117.766 32.5562 117.039 32.4211 116.361 32.1463C115.684 31.8714 115.068 31.4624 114.552 30.9438C114.036 30.4252 113.631 29.8077 113.359 29.1283C113.088 28.449 112.957 27.7219 112.973 26.9906C112.954 26.2538 113.085 25.5208 113.358 24.8362C113.632 24.1517 114.041 23.5299 114.562 23.0088C115.075 22.4868 115.69 22.0754 116.368 21.7999C117.046 21.5245 117.773 21.3907 118.504 21.407C119.329 21.4027 120.144 21.5813 120.892 21.9301C121.61 22.2604 122.24 22.7566 122.729 23.378C123.155 23.9163 123.445 24.5496 123.574 25.2241H121.35C121.163 24.7124 120.81 24.2783 120.347 23.9916C119.685 23.573 118.901 23.3928 118.123 23.4807C117.345 23.5685 116.62 23.9192 116.068 24.4748C115.747 24.8073 115.495 25.2003 115.328 25.6309C115.16 26.0616 115.079 26.5213 115.091 26.9833C115.08 27.4435 115.161 27.9012 115.331 28.3293C115.5 28.7574 115.753 29.1472 116.076 29.4755C116.63 30.0319 117.358 30.381 118.139 30.4643C118.92 30.5477 119.706 30.3603 120.365 29.9334C120.841 29.6277 121.198 29.1677 121.375 28.6303H123.601C123.426 29.7229 122.836 30.7058 121.954 31.3741C120.973 32.1494 119.755 32.5624 118.504 32.5433H118.497ZM110.649 32.5433C110.445 32.5486 110.242 32.5121 110.052 32.4358C109.863 32.3595 109.691 32.2452 109.547 32.0999C109.263 31.8101 109.103 31.4202 109.103 31.0139C109.103 30.6077 109.263 30.2177 109.547 29.928C109.846 29.6434 110.242 29.4847 110.655 29.4847C111.067 29.4847 111.464 29.6434 111.763 29.928C112.047 30.2177 112.207 30.6077 112.207 31.0139C112.207 31.4202 112.047 31.8101 111.763 32.0999C111.618 32.245 111.445 32.3592 111.255 32.4355C111.065 32.5117 110.862 32.5484 110.657 32.5433H110.649ZM151.796 32.3225V26.3173C151.796 25.4449 151.566 24.7445 151.111 24.2377C150.871 23.9799 150.578 23.7774 150.251 23.6443C149.925 23.5112 149.574 23.4506 149.222 23.4667C148.529 23.4542 147.859 23.7142 147.356 24.1907C146.842 24.6721 146.583 25.3888 146.583 26.3191V32.3243H144.411V26.3173C144.411 25.4431 144.176 24.7445 143.714 24.2377C143.47 23.9798 143.173 23.7775 142.844 23.6445C142.514 23.5114 142.16 23.4508 141.805 23.4667C141.114 23.4554 140.446 23.7153 139.944 24.1907C139.427 24.6721 139.164 25.3888 139.164 26.3191V32.3243H137.038V21.646H139.179V23.673L139.515 23.1138C139.837 22.5509 140.324 22.0999 140.909 21.8215C141.475 21.5548 142.093 21.4157 142.719 21.4143C144.284 21.4143 145.351 22.017 145.977 23.2568L146.136 23.5717L146.299 23.2586C146.602 22.6847 147.072 22.2164 147.647 21.9156C148.264 21.581 148.955 21.4085 149.656 21.4143C150.947 21.4143 152.009 21.8107 152.798 22.5925C153.587 23.3744 154 24.4332 154 25.7544V32.3225H151.796ZM102.567 32.3225L96.7477 25.1246V32.3171H92.7135V10.859H96.7477V24.0187L102.308 17.3746H107.231L101.026 24.5852L107.723 32.3171L102.567 32.3225ZM15.3714 32.3225L12.1589 23.5916L8.91376 32.3171H5.7736L0.380127 17.3746H4.70576L7.38078 26.1453L10.5662 17.3746H13.7516L16.9678 26.1453L19.6102 17.3746H23.9539L18.575 32.3207L15.3714 32.3225Z" fill="white"/>
<path d="M83.4703 44.4867V40.8796H82.5491V39.705H83.4703V39.343C83.4703 38.7186 83.6513 38.2227 83.9807 37.8716C84.1574 37.6933 84.3695 37.554 84.6032 37.4627C84.837 37.3714 85.0874 37.33 85.3381 37.3413C85.5384 37.3405 85.7382 37.3624 85.9336 37.4065V38.534C85.843 38.5223 85.7516 38.5169 85.6603 38.5177C85.4166 38.5072 85.1767 38.5813 84.9816 38.7277C84.8893 38.8065 84.8167 38.9059 84.7696 39.0177C84.7225 39.1296 84.7021 39.2509 84.7101 39.372V39.705H85.9336V40.8796H84.7101V44.4867H83.4703Z" fill="white"/>
<path d="M88.7028 44.5845C88.437 44.5984 88.1713 44.5545 87.9242 44.4558C87.677 44.357 87.4542 44.2058 87.2712 44.0126C86.9255 43.6307 86.7499 43.0931 86.7499 42.4162V39.7014H87.9951V42.2352C87.9807 42.5441 88.0842 42.8469 88.2847 43.0823C88.3868 43.1847 88.5081 43.266 88.6416 43.3215C88.7752 43.3769 88.9184 43.4055 89.063 43.4055C89.2076 43.4055 89.3508 43.3769 89.4843 43.3215C89.6179 43.266 89.7392 43.1847 89.8412 43.0823C90.0445 42.8476 90.1495 42.5436 90.1344 42.2334V39.6996H91.3796V44.4867H90.1344V43.6035L89.9661 43.8732C89.8412 44.0964 89.6572 44.2808 89.4344 44.4063C89.2115 44.5318 88.9584 44.5934 88.7028 44.5845Z" fill="white"/>
<path d="M95.9422 44.4868V41.9529C95.9556 41.6456 95.8514 41.3447 95.6508 41.1113C95.5497 41.0076 95.4288 40.9252 95.2953 40.8689C95.1618 40.8127 95.0184 40.7837 94.8735 40.7837C94.7286 40.7837 94.5852 40.8127 94.4517 40.8689C94.3182 40.9252 94.1973 41.0076 94.0961 41.1113C93.8936 41.3443 93.7885 41.6464 93.8029 41.9547V44.4886H92.5577V39.7051H93.8029V40.5666L93.9695 40.315C94.0985 40.0948 94.2839 39.9129 94.5066 39.7882C94.7293 39.6635 94.9812 39.6004 95.2364 39.6055C95.5021 39.5917 95.7676 39.6358 96.0145 39.7349C96.2614 39.834 96.4838 39.9856 96.6662 40.1792C97.0101 40.5593 97.1856 41.0969 97.1856 41.7738V44.4886L95.9422 44.4868Z" fill="white"/>
<path d="M102.802 44.5645C102.551 44.5763 102.3 44.5354 102.066 44.4444C101.832 44.3533 101.62 44.2142 101.442 44.036C101.106 43.6831 100.934 43.1854 100.934 42.5537V40.8796H100.013V39.705H100.934V38.4019H102.179V39.705H103.397V40.8796H102.179V42.532C102.171 42.6533 102.191 42.7748 102.238 42.8871C102.284 42.9995 102.356 43.0996 102.447 43.18C102.642 43.3291 102.883 43.4047 103.127 43.3935C103.218 43.3938 103.308 43.3872 103.397 43.3736V44.503C103.201 44.5451 103.002 44.5657 102.802 44.5645Z" fill="white"/>
<path d="M107.748 44.4868V41.9529C107.761 41.6453 107.656 41.3445 107.455 41.1113C107.354 41.0076 107.233 40.9252 107.099 40.8689C106.966 40.8127 106.822 40.7837 106.678 40.7837C106.533 40.7837 106.389 40.8127 106.256 40.8689C106.122 40.9252 106.001 41.0076 105.9 41.1113C105.698 41.3446 105.593 41.6465 105.607 41.9547V44.4886H104.364V37.5929H105.607V40.5665L105.774 40.315C105.903 40.0949 106.088 39.9131 106.311 39.7884C106.533 39.6638 106.785 39.6006 107.04 39.6055C107.305 39.5917 107.57 39.6356 107.816 39.734C108.062 39.8324 108.284 39.9831 108.467 40.1756C108.812 40.5557 108.986 41.0932 108.986 41.7701V44.485L107.748 44.4868Z" fill="white"/>
<path d="M110.17 44.4868V39.7051H111.415V44.4868H110.17ZM110.783 38.8472C110.578 38.8449 110.382 38.7623 110.237 38.6172C110.092 38.4721 110.009 38.276 110.007 38.0708C110.005 37.9692 110.024 37.8684 110.064 37.7748C110.104 37.6813 110.162 37.5971 110.237 37.5278C110.381 37.3846 110.576 37.3042 110.78 37.3042C110.983 37.3042 111.178 37.3846 111.323 37.5278C111.397 37.5971 111.456 37.6813 111.495 37.7748C111.535 37.8684 111.554 37.9692 111.552 38.0708C111.55 38.2763 111.467 38.4727 111.322 38.6178C111.176 38.763 110.98 38.8453 110.774 38.8472H110.783Z" fill="white"/>
<path d="M115.985 44.4869V41.953C115.998 41.6457 115.894 41.3447 115.693 41.1114C115.592 41.0077 115.471 40.9253 115.338 40.869C115.204 40.8127 115.061 40.7838 114.916 40.7838C114.771 40.7838 114.628 40.8127 114.494 40.869C114.361 40.9253 114.24 41.0077 114.139 41.1114C113.937 41.3447 113.832 41.6465 113.846 41.9548V44.4887H112.602V39.7051H113.846V40.5666L114.012 40.3151C114.141 40.095 114.327 39.9132 114.549 39.7885C114.772 39.6638 115.024 39.6007 115.279 39.6056C115.544 39.5916 115.809 39.6353 116.056 39.7337C116.302 39.8321 116.524 39.983 116.707 40.1757C117.053 40.5558 117.226 41.0933 117.226 41.7702V44.4851L115.985 44.4869Z" fill="white"/>
<path d="M120.843 46.5283C120.642 46.5283 120.441 46.5138 120.242 46.4849C120.021 46.4502 119.805 46.3938 119.596 46.3166C119.381 46.241 119.178 46.1356 118.993 46.0035C118.812 45.868 118.663 45.6951 118.555 45.4967C118.445 45.3004 118.378 45.0834 118.356 44.8596H119.606C119.629 44.9636 119.676 45.061 119.741 45.1447C119.807 45.2283 119.891 45.2961 119.987 45.3429C120.236 45.4698 120.514 45.5321 120.794 45.5238C121.118 45.5287 121.433 45.4205 121.686 45.218C121.81 45.1255 121.909 45.0052 121.978 44.8668C122.046 44.7284 122.081 44.5759 122.079 44.4216V43.4135L121.912 43.656C121.572 44.1538 121.082 44.3963 120.41 44.3963C120.015 44.3981 119.628 44.2862 119.295 44.0741C118.955 43.8582 118.678 43.5567 118.492 43.1999C118.298 42.8287 118.197 42.4161 118.197 41.9973C118.197 41.5785 118.298 41.1659 118.492 40.7946C118.677 40.4398 118.952 40.1402 119.29 39.9259C119.623 39.7143 120.01 39.6031 120.405 39.6055C121.076 39.6055 121.567 39.848 121.907 40.3458L122.073 40.5883V39.6942H123.319V44.3655C123.326 44.7743 123.211 45.176 122.987 45.5184C122.768 45.8477 122.461 46.1087 122.101 46.2713C121.704 46.446 121.276 46.5337 120.843 46.5283ZM120.738 40.7222C120.389 40.7151 120.051 40.845 119.797 41.0842C119.671 41.1989 119.571 41.3388 119.504 41.4947C119.436 41.6507 119.402 41.8191 119.404 41.9891C119.402 42.1574 119.436 42.3241 119.503 42.4782C119.571 42.6323 119.67 42.7704 119.795 42.8832C120.054 43.117 120.39 43.2464 120.739 43.2464C121.087 43.2464 121.424 43.117 121.682 42.8832C121.809 42.7692 121.909 42.6294 121.976 42.4732C122.043 42.317 122.076 42.1482 122.072 41.9783C122.074 41.8085 122.041 41.6402 121.974 41.4842C121.907 41.3283 121.807 41.1883 121.682 41.0733C121.426 40.836 121.087 40.7098 120.738 40.7222Z" fill="white"/>
<path d="M126.419 44.5845C125.867 44.6089 125.323 44.4498 124.872 44.132C124.692 43.9959 124.541 43.8243 124.43 43.6279C124.319 43.4315 124.249 43.2144 124.225 42.99H125.413C125.432 43.0717 125.468 43.1485 125.518 43.2157C125.568 43.283 125.631 43.3392 125.704 43.3809C125.899 43.4969 126.122 43.5547 126.348 43.5474C126.536 43.5582 126.723 43.5202 126.891 43.437C126.959 43.404 127.015 43.3524 127.055 43.2882C127.094 43.2241 127.114 43.1502 127.112 43.0751C127.112 43.0065 127.094 42.9391 127.06 42.8793C127.027 42.8195 126.979 42.7691 126.92 42.733C126.788 42.6497 126.641 42.5926 126.488 42.5647C126.323 42.5303 126.14 42.4959 125.945 42.4633C125.748 42.4305 125.553 42.3852 125.362 42.3276C125.18 42.2729 125.004 42.1995 124.837 42.1086C124.685 42.0192 124.56 41.8904 124.475 41.7357C124.377 41.5517 124.328 41.3452 124.334 41.1367C124.329 40.9271 124.371 40.7192 124.459 40.5287C124.547 40.3383 124.677 40.1704 124.839 40.0381C125.228 39.7292 125.717 39.5728 126.213 39.5983C126.713 39.585 127.204 39.7314 127.615 40.0163C127.79 40.1383 127.938 40.2955 128.049 40.4778C128.16 40.6601 128.232 40.8635 128.26 41.0751H127.004C126.966 40.9418 126.879 40.8274 126.761 40.7548C126.588 40.6463 126.386 40.5927 126.182 40.6009C126.025 40.5954 125.869 40.629 125.728 40.6987C125.666 40.7291 125.614 40.7766 125.578 40.8356C125.542 40.8946 125.523 40.9626 125.525 41.0317C125.525 41.0987 125.544 41.1643 125.58 41.2212C125.615 41.2781 125.666 41.324 125.726 41.3539C125.86 41.4282 126.005 41.4785 126.157 41.5023C126.323 41.5312 126.504 41.5602 126.7 41.5909C126.896 41.6207 127.091 41.6655 127.281 41.7249C127.465 41.7818 127.642 41.8627 127.805 41.9656C127.961 42.0707 128.086 42.2157 128.167 42.3855C128.269 42.5971 128.318 42.8297 128.312 43.0642C128.314 43.2734 128.265 43.4799 128.171 43.6665C128.076 43.8532 127.939 44.0146 127.769 44.1375C127.385 44.4394 126.907 44.5976 126.419 44.5845Z" fill="white"/>
<path d="M133.675 44.5645C133.424 44.5758 133.173 44.5346 132.939 44.4436C132.704 44.3526 132.491 44.2138 132.314 44.036C131.977 43.6831 131.807 43.1854 131.807 42.5537V40.8796H130.884V39.705H131.807V38.4019H133.045V39.705H134.263V40.8796H133.045V42.532C133.037 42.6532 133.057 42.7746 133.103 42.8869C133.149 42.9992 133.22 43.0995 133.311 43.18C133.506 43.3291 133.748 43.4047 133.993 43.3935C134.084 43.3938 134.174 43.3872 134.263 43.3736V44.503C134.07 44.5445 133.872 44.5651 133.675 44.5645Z" fill="white"/>
<path d="M137.3 44.5845C136.968 44.5935 136.637 44.5357 136.327 44.4147C136.017 44.2936 135.734 44.1116 135.496 43.8796C135.257 43.6475 135.068 43.3701 134.939 43.0635C134.809 42.757 134.743 42.4277 134.743 42.095C134.743 41.7623 134.809 41.433 134.939 41.1265C135.068 40.82 135.257 40.5425 135.496 40.3105C135.734 40.0784 136.017 39.8965 136.327 39.7754C136.637 39.6543 136.968 39.5966 137.3 39.6055C137.635 39.6013 137.968 39.6628 138.279 39.7865C138.575 39.9064 138.843 40.0836 139.07 40.3078C139.295 40.5359 139.472 40.8058 139.593 41.1023C139.721 41.4159 139.787 41.7517 139.785 42.0905C139.79 42.5341 139.678 42.9712 139.459 43.3574C139.249 43.7305 138.94 44.0391 138.567 44.2497C138.181 44.4694 137.744 44.5848 137.3 44.5845ZM137.3 40.7838C137.131 40.7806 136.964 40.8125 136.808 40.8773C136.652 40.942 136.512 41.0384 136.395 41.1602C136.161 41.4142 136.031 41.7469 136.031 42.0923C136.031 42.4377 136.161 42.7704 136.395 43.0244C136.514 43.1435 136.655 43.238 136.81 43.3024C136.965 43.3669 137.132 43.4001 137.3 43.4001C137.468 43.4001 137.635 43.3669 137.79 43.3024C137.945 43.238 138.086 43.1435 138.205 43.0244C138.324 42.9018 138.417 42.7567 138.479 42.5976C138.542 42.4385 138.571 42.2685 138.567 42.0977C138.572 41.9253 138.543 41.7535 138.48 41.5925C138.418 41.4315 138.325 41.2846 138.205 41.1602C138.088 41.0385 137.948 40.9423 137.792 40.8778C137.636 40.8133 137.469 40.7819 137.3 40.7856V40.7838Z" fill="white"/>
<path d="M144.818 44.5845C144.423 44.5863 144.036 44.4703 143.707 44.2515C143.364 44.0253 143.087 43.7133 142.902 43.3465C142.708 42.9569 142.607 42.5275 142.607 42.0923C142.607 41.657 142.708 41.2277 142.902 40.838C143.085 40.4703 143.363 40.158 143.707 39.9331C144.037 39.7164 144.424 39.6018 144.818 39.6037C145.115 39.588 145.41 39.6509 145.674 39.7859C145.938 39.921 146.162 40.1235 146.322 40.3729L146.489 40.619V37.5929H147.732V44.4868H146.489V43.5818L146.322 43.8262C146.16 44.0733 145.936 44.2734 145.672 44.4065C145.408 44.5396 145.114 44.601 144.818 44.5845ZM145.155 40.7837C144.98 40.781 144.807 40.8135 144.645 40.8795C144.484 40.9454 144.337 41.0434 144.214 41.1674C144.09 41.2889 143.992 41.4338 143.925 41.5937C143.858 41.7536 143.823 41.9252 143.823 42.0986C143.823 42.272 143.858 42.4437 143.925 42.6035C143.992 42.7634 144.09 42.9083 144.214 43.0298C144.468 43.2737 144.807 43.4099 145.16 43.4099C145.512 43.4099 145.851 43.2737 146.105 43.0298C146.228 42.9073 146.325 42.7617 146.392 42.6014C146.458 42.4412 146.493 42.2694 146.493 42.0959C146.493 41.9224 146.458 41.7506 146.392 41.5904C146.325 41.4301 146.228 41.2845 146.105 41.162C145.981 41.0368 145.833 40.9381 145.67 40.8719C145.506 40.8056 145.331 40.7732 145.155 40.7765V40.7837Z" fill="white"/>
<path d="M151.133 44.5845C150.8 44.5935 150.469 44.5357 150.16 44.4147C149.85 44.2936 149.567 44.1116 149.329 43.8796C149.09 43.6475 148.901 43.3701 148.772 43.0635C148.642 42.757 148.576 42.4277 148.576 42.095C148.576 41.7623 148.642 41.433 148.772 41.1265C148.901 40.82 149.09 40.5425 149.329 40.3105C149.567 40.0784 149.85 39.8965 150.16 39.7754C150.469 39.6543 150.8 39.5966 151.133 39.6055C151.468 39.6013 151.801 39.6628 152.112 39.7865C152.408 39.9064 152.676 40.0836 152.903 40.3078C153.128 40.5359 153.305 40.8058 153.426 41.1023C153.554 41.4159 153.619 41.7517 153.618 42.0905C153.623 42.5341 153.511 42.9712 153.292 43.3574C153.082 43.7305 152.773 44.0391 152.4 44.2497C152.014 44.4694 151.577 44.5848 151.133 44.5845ZM151.133 40.7838C150.964 40.7806 150.797 40.8125 150.641 40.8773C150.485 40.942 150.345 41.0384 150.228 41.1602C149.994 41.4142 149.864 41.7469 149.864 42.0923C149.864 42.4377 149.994 42.7704 150.228 43.0244C150.347 43.1435 150.488 43.238 150.643 43.3024C150.798 43.3669 150.965 43.4001 151.133 43.4001C151.301 43.4001 151.468 43.3669 151.623 43.3024C151.778 43.238 151.919 43.1435 152.038 43.0244C152.157 42.9018 152.25 42.7567 152.312 42.5976C152.375 42.4385 152.404 42.2685 152.4 42.0977C152.405 41.9253 152.376 41.7535 152.313 41.5925C152.251 41.4315 152.158 41.2846 152.038 41.1602C151.921 41.0385 151.781 40.9423 151.625 40.8778C151.469 40.8133 151.302 40.7819 151.133 40.7856V40.7838Z" fill="white"/>
</g>
<defs>
<clipPath id="clip0_4822_26551">
<rect width="153.62" height="35.6693" fill="white" transform="translate(0.380127 10.859)"/>
</clipPath>
</defs>
</svg>
