<?xml version="1.0" encoding="UTF-8"?>
<svg width="167px" height="38px" viewBox="0 0 167 38" version="1.1" xmlns="http://www.w3.org/2000/svg" xmlns:xlink="http://www.w3.org/1999/xlink">
    <title>pay-option-credit-2</title>
    <defs>
        <polygon id="path-1" points="0 0 93 0 93 30 0 30"></polygon>
    </defs>
    <g id="Page-1" stroke="none" stroke-width="1" fill="none" fill-rule="evenodd">
        <g id="pay-option-credit-2">
            <rect id="Rectangle" x="0" y="0" width="167" height="38"></rect>
            <g id="Fill-1-Clipped" transform="translate(2.000000, 4.000000)">
                <mask id="mask-2" fill="white">
                    <use xlink:href="#path-1"></use>
                </mask>
                <g id="path-1"></g>
                <path d="M46.0485646,0.530684213 L39.8335239,29.545865 L32.3195032,29.545865 L38.5349744,0.530684213 L46.0485646,0.530684213 Z M77.6649738,19.2654711 L81.6208999,8.37010278 L83.8976671,19.2654711 L77.6649738,19.2654711 Z M86.0487127,29.545865 L93,29.545865 L86.9343614,0.530684213 L80.5182522,0.530684213 C79.0767589,0.530684213 77.8604451,1.36842558 77.3192393,2.65944179 L66.0451942,29.545865 L73.9355188,29.545865 L75.5027338,25.2130908 L85.1441197,25.2130908 L86.0487127,29.545865 Z M66.436998,20.0726788 C66.4692895,12.4143121 55.8337554,11.9924311 55.9073801,8.57136714 C55.9293383,7.5297811 56.9230559,6.42368727 59.0943375,6.14028297 C60.1728742,5.99965596 63.137666,5.8917129 66.5050254,7.43904012 L67.8229499,1.28671569 C66.0150555,0.630456285 63.6879135,0 60.7937324,0 C53.3666835,0 48.1384716,3.94443728 48.0941246,9.59231067 C48.0476248,13.768976 51.8257323,16.098998 54.6738441,17.4880661 C57.6007472,18.9106782 58.5845621,19.8210984 58.5720761,21.0931923 C58.5527011,23.041328 56.236323,23.8988518 54.0762358,23.9332559 C50.2968366,23.9930332 48.1044578,22.9144626 46.3564104,22.1008042 L44.995,28.4582634 C46.7503669,29.264181 49.990713,29.9638756 53.3529058,30 C61.2462442,30 66.4111648,26.1037286 66.436998,20.0726788 L66.436998,20.0726788 Z M35.3105587,0.530684213 L23.1357957,29.545865 L15.1912213,29.545865 L9.20006852,6.38971316 C8.83625076,4.96323055 8.51979389,4.44157743 7.41327123,3.84079474 C5.60882126,2.8619963 2.62551562,1.94340515 0,1.3735862 L0.179971389,0.530684213 L12.9661205,0.530684213 C14.5953352,0.530684213 16.0618006,1.61398529 16.4312156,3.48858212 L19.5962148,20.2799639 L27.4159286,0.530684213 L35.3105587,0.530684213 Z" id="Fill-1" fill="#1A1F71" fill-rule="nonzero" mask="url(#mask-2)"></path>
            </g>
            <g id="Group-14" transform="translate(107.000000, 2.000000)" fill-rule="nonzero">
                <path d="M27.9983864,30.3681555 C23.5748467,27.1137781 20.9942508,21.7675546 21.0000604,16.4973634 C20.9955647,11.3718374 23.4384294,7.14970378 27.6438678,3.89580309 L27.9983864,3.62836834 C32.4195542,6.88503514 35.00015,11.231751 35.00015,16.4996528 C35.00015,21.6251789 32.5571608,26.8423024 28.3528114,30.0993075 L27.9983864,30.3681555 Z" id="Path" fill="#FF5F00"></path>
                <path d="M27.6659373,30.6060862 C20.5863182,35.8139078 10.6215387,34.9544415 4.59249429,28.5390583 C-1.53063143,22.0227616 -1.53063143,11.9778908 4.59249429,5.46159411 C10.5273349,-0.853548647 20.2758798,-1.78504057 27.331993,3.15380998 L27.6659373,3.39343243 L28.00015,3.62836834 L28.00015,3.62836834 C23.8236115,6.84966622 21.3864574,11.779692 21.3909375,16.9977183 C21.3853374,22.2180124 23.8224915,27.149172 28.00015,30.3727377 L27.8335477,30.4908009 L27.8335477,30.4908009 L27.6659373,30.6060862 Z" id="Path" fill="#EB001B"></path>
                <path d="M28.163392,30.48633 L28.00015,30.3681555 C32.1744401,27.1442868 34.6127094,22.2166647 34.6127094,16.9999827 C34.6127094,11.7833007 32.1744401,6.85681216 28.00015,3.63294347 L28.163392,3.51377709 L28.163392,3.51377709 L28.668026,3.15328921 C33.8048696,-0.437941392 40.5476654,-1.01875326 46.2582731,1.70587709 C52.0999119,4.49534457 55.8509449,10.2571061 55.9957983,16.6155141 L56.00015,16.9977156 C56.00015,23.5123335 52.2167446,29.4499651 46.2582731,32.2940883 C40.5476654,35.0198276 33.8048696,34.437955 28.668026,30.8466777 L28.163392,30.48633 Z" id="Path" fill="#F79E1B"></path>
            </g>
        </g>
    </g>
</svg>