<?xml version="1.0" encoding="UTF-8"?>
<svg width="512px" height="460px" viewBox="0 0 512 460" version="1.1" xmlns="http://www.w3.org/2000/svg" xmlns:xlink="http://www.w3.org/1999/xlink">
    <!-- Generator: Sketch 60.1 (88133) - https://sketch.com -->
    <title>credit-card</title>
    <desc>Created with Sketch.</desc>
    <g id="Page-1" stroke="none" stroke-width="1" fill="none" fill-rule="evenodd">
        <g id="credit-card" fill="#000000" fill-rule="nonzero">
            <path d="M407.04,359.22 C402.501,356.072 396.27,357.204 393.125,361.743 C390.077,366.143 386.623,370.421 382.854,374.46 C380.329,377.169 376.855,380.435 373.075,383.651 C368.869,387.231 368.361,393.542 371.94,397.749 C373.918,400.073 376.731,401.267 379.561,401.267 C381.852,401.267 384.155,400.484 386.038,398.882 C390.448,395.128 394.407,391.4 397.481,388.099 C401.903,383.361 405.969,378.326 409.565,373.134 C412.71,368.595 411.58,362.365 407.04,359.22 Z" id="Path"></path>
            <path d="M363.474,404.058 C361.128,399.058 355.176,396.906 350.174,399.251 L349.861,399.392 C344.808,401.621 342.52,407.525 344.751,412.578 C346.401,416.318 350.063,418.543 353.904,418.543 C355.253,418.543 356.624,418.268 357.936,417.689 C358.18,417.582 358.422,417.472 358.665,417.359 C363.665,415.013 365.818,409.06 363.474,404.058 Z" id="Path"></path>
            <path d="M482.126,0.001 L29.875,0.001 C13.401,0.001 0,13.404 0,29.876 L0,310.128 C0,326.599 13.401,340.001 29.875,340.001 L240.461,340.001 C249.388,377.771 269.575,404.521 287.218,421.659 C312.97,446.677 342.49,460 353.899,460 C365.307,460 394.827,446.678 420.58,421.66 C438.223,404.521 458.411,377.771 467.337,340.002 L482.126,340.002 C498.599,340.002 512.001,326.6 512.001,310.129 L512.001,29.876 C512.001,13.404 498.599,0.001 482.126,0.001 Z M452,299.019 C452,351.707 427.68,386.656 407.276,406.697 C383.073,430.47 358.246,439.717 353.899,439.998 C349.551,439.717 324.723,430.471 300.52,406.697 C280.118,386.656 255.797,351.707 255.797,299.019 L255.797,249.773 C290.227,239.816 322.443,226.189 353.902,208.281 C384.652,225.734 418.312,239.967 452,249.767 L452,299.019 Z M492.001,310.128 C492.001,315.572 487.57,320.001 482.126,320.001 L470.815,320.001 C471.581,313.3 472.001,306.312 472.001,299.019 L472.001,242.191 C472.001,237.677 468.977,233.724 464.622,232.541 C428.309,222.68 391.768,207.314 358.95,188.105 C355.83,186.279 351.968,186.281 348.846,188.107 C315.098,207.861 280.533,222.394 243.176,232.541 C238.821,233.725 235.797,237.678 235.797,242.191 L235.797,299.019 C235.797,306.312 236.216,313.3 236.983,320.001 L29.875,320.001 C24.43,320.001 20,315.571 20,310.128 L20,139.999 L492.001,139.999 L492.001,310.128 Z M492.001,120 L20,120 L20,80.002 L492.001,80.002 L492.001,120 Z M492.001,60.001 L20,60.001 L20,29.876 C20,24.431 24.43,20.001 29.875,20.001 L482.126,20.001 C487.57,20.001 492.001,24.431 492.001,29.876 L492.001,60.001 Z" id="Shape"></path>
            <path d="M119.997,210.003 C113.968,210.003 108.015,211.222 102.505,213.546 C97.122,211.265 91.206,210.003 85.002,210.003 C60.189,210.003 40.001,230.189 40.001,255.001 C40.001,279.813 60.188,300.001 85.002,300.001 C91.206,300.001 97.122,298.739 102.504,296.458 C108.015,298.782 113.968,300.001 119.997,300.001 C144.811,300.001 164.999,279.813 164.999,255.001 C164.999,230.189 144.811,210.003 119.997,210.003 Z M85.002,280.001 C71.216,280.001 60.001,268.787 60.001,255.001 C60.001,241.216 71.216,230.003 85.002,230.003 C98.786,230.003 110.001,241.216 110.001,255.001 C110.001,268.786 98.786,280.001 85.002,280.001 Z M122.476,279.879 C127.226,272.748 130.001,264.193 130.001,255.002 C130.001,245.811 127.226,237.258 122.477,230.127 C135.102,231.375 144.998,242.055 144.998,255.002 C144.998,267.949 135.102,278.63 122.476,279.879 Z" id="Shape"></path>
            <path d="M101.436,165.001 L49.999,165.001 C44.476,165.001 39.999,169.478 39.999,175.001 C39.999,180.523 44.476,185.001 49.999,185.001 L101.436,185.001 C106.959,185.001 111.436,180.522 111.436,175.001 C111.436,169.478 106.959,165.001 101.436,165.001 Z" id="Path"></path>
            <path d="M130.996,165.001 L130.522,165.001 C124.999,165.001 120.522,169.478 120.522,175.001 C120.522,180.523 124.999,185.001 130.522,185.001 L130.996,185.001 C136.518,185.001 140.996,180.522 140.996,175.001 C140.996,169.478 136.518,165.001 130.996,165.001 Z" id="Path"></path>
            <path d="M408.79,276.026 C404.887,272.123 398.556,272.121 394.649,276.025 L341.172,329.498 L313.149,301.473 C309.243,297.571 302.911,297.569 299.006,301.473 C295.101,305.379 295.1,311.711 299.006,315.616 L334.101,350.712 C336.054,352.665 338.613,353.642 341.172,353.642 C343.731,353.642 346.291,352.665 348.242,350.712 L408.789,290.169 C412.695,286.265 412.695,279.933 408.79,276.026 Z" id="Path"></path>
        </g>
    </g>
</svg>