<?xml version="1.0" encoding="UTF-8"?>
<svg width="436px" height="512px" viewBox="0 0 436 512" version="1.1" xmlns="http://www.w3.org/2000/svg" xmlns:xlink="http://www.w3.org/1999/xlink">
    <!-- Generator: Sketch 60.1 (88133) - https://sketch.com -->
    <title>shield</title>
    <desc>Created with Sketch.</desc>
    <g id="Page-1" stroke="none" stroke-width="1" fill="none" fill-rule="evenodd">
        <g id="shield" transform="translate(0.000000, -1.000000)" fill="#000000" fill-rule="nonzero">
            <path d="M217.996094,159.457031 C164.203125,159.457031 120.441406,203.21875 120.441406,257.007812 C120.441406,310.800781 164.203125,354.5625 217.996094,354.5625 C271.785156,354.5625 315.546875,310.800781 315.546875,257.007812 C315.546875,203.21875 271.785156,159.457031 217.996094,159.457031 Z M275.914062,238.636719 L206.027344,308.523438 C203.09375,311.457031 199.246094,312.925781 195.402344,312.925781 C191.558594,312.925781 187.714844,311.460938 184.78125,308.523438 L158.074219,281.816406 C152.207031,275.953125 152.207031,266.441406 158.074219,260.574219 C163.9375,254.707031 173.449219,254.707031 179.316406,260.574219 L195.402344,276.660156 L254.671875,217.394531 C260.535156,211.527344 270.046875,211.527344 275.914062,217.394531 C281.78125,223.257812 281.78125,232.769531 275.914062,238.636719 Z" id="Shape"></path>
            <path d="M435.488281,139.917969 L435.472656,139.519531 C435.25,134.601562 435.101562,129.398438 435.011719,123.609375 C434.59375,95.378906 412.152344,72.027344 383.917969,70.449219 C325.050781,67.164062 279.511719,47.96875 240.601562,10.042969 L240.269531,9.726562 C227.578125,-1.910156 208.433594,-1.910156 195.738281,9.726562 L195.40625,10.042969 C156.496094,47.96875 110.957031,67.164062 52.089844,70.453125 C23.859375,72.027344 1.414062,95.378906 0.996094,123.613281 C0.910156,129.363281 0.757812,134.566406 0.535156,139.519531 L0.511719,140.445312 C-0.632812,200.472656 -2.054688,275.179688 22.9375,342.988281 C36.679688,380.277344 57.492188,412.691406 84.792969,439.335938 C115.886719,469.679688 156.613281,493.769531 205.839844,510.933594 C207.441406,511.492188 209.105469,511.945312 210.800781,512.285156 C213.191406,512.761719 215.597656,513 218.003906,513 C220.410156,513 222.820312,512.761719 225.207031,512.285156 C226.902344,511.945312 228.578125,511.488281 230.1875,510.925781 C279.355469,493.730469 320.039062,469.628906 351.105469,439.289062 C378.394531,412.636719 399.207031,380.214844 412.960938,342.917969 C438.046875,274.90625 436.628906,200.058594 435.488281,139.917969 Z M217.996094,384.605469 C147.636719,384.605469 90.398438,327.367188 90.398438,257.007812 C90.398438,186.648438 147.636719,129.410156 217.996094,129.410156 C288.351562,129.410156 345.59375,186.648438 345.59375,257.007812 C345.59375,327.367188 288.351562,384.605469 217.996094,384.605469 Z" id="Shape"></path>
        </g>
    </g>
</svg>