<?xml version="1.0" encoding="UTF-8"?>
<svg width="512px" height="448px" viewBox="0 0 512 448" version="1.1" xmlns="http://www.w3.org/2000/svg" xmlns:xlink="http://www.w3.org/1999/xlink">
    <!-- Generator: Sketch 60.1 (88133) - https://sketch.com -->
    <title>credit-card (1)</title>
    <desc>Created with Sketch.</desc>
    <g id="Page-1" stroke="none" stroke-width="1" fill="none" fill-rule="evenodd">
        <g id="credit-card-(1)" fill="#000000" fill-rule="nonzero">
            <path d="M224,127.992 L224,95.992 L32,95.992 C14.368,95.992 0,110.36 0,127.992 L0,191.992 L230.752,191.992 C226.304,172.44 224,151.384 224,127.992 Z" id="Path"></path>
            <path d="M510.688,255.992 C488.864,289.624 455.584,318.232 407.904,345.624 C400.576,349.816 392.32,351.992 384,351.992 C375.68,351.992 367.424,349.816 360.192,345.688 C312.512,318.232 279.232,289.592 257.376,255.992 L0,255.992 L0,415.992 C0,433.656 14.368,447.992 32,447.992 L480,447.992 C497.664,447.992 512,433.656 512,415.992 L512,255.992 L510.688,255.992 L510.688,255.992 Z M144,351.992 L80,351.992 C71.168,351.992 64,344.824 64,335.992 C64,327.16 71.168,319.992 80,319.992 L144,319.992 C152.832,319.992 160,327.16 160,335.992 C160,344.824 152.832,351.992 144,351.992 Z" id="Shape"></path>
            <path d="M502.304,49.304 L390.304,1.304 C386.24,-0.424 381.728,-0.424 377.664,1.304 L265.664,49.304 C259.808,51.8 256,57.592 256,63.992 L256,127.992 C256,216.024 288.544,267.48 376.032,317.88 C378.496,319.288 381.248,319.992 384,319.992 C386.752,319.992 389.504,319.288 391.968,317.88 C479.456,267.608 512,216.152 512,127.992 L512,63.992 C512,57.592 508.192,51.8 502.304,49.304 Z M444.512,122.008 L380.512,202.008 C377.44,205.784 372.832,207.992 368,207.992 C367.776,207.992 367.52,207.992 367.328,207.992 C362.24,207.768 357.536,205.144 354.688,200.888 L322.688,152.888 C317.792,145.528 319.776,135.608 327.136,130.712 C334.432,125.848 344.384,127.768 349.312,135.16 L369.184,164.952 L419.488,102.04 C425.024,95.16 435.104,94.072 441.984,99.544 C448.896,105.016 449.984,115.096 444.512,122.008 Z" id="Shape"></path>
        </g>
    </g>
</svg>