<?xml version="1.0" encoding="UTF-8"?>
<svg width="24px" height="25px" viewBox="0 0 24 25" version="1.1" xmlns="http://www.w3.org/2000/svg" xmlns:xlink="http://www.w3.org/1999/xlink">
    <!-- Generator: Sketch 60.1 (88133) - https://sketch.com -->
    <title>wallet</title>
    <desc>Created with Sketch.</desc>
    <g id="Page-1" stroke="none" stroke-width="1" fill="none" fill-rule="evenodd" opacity="0.75">
        <g id="Edit-Shipping-Address" transform="translate(-774.000000, -260.000000)" fill="#000000" fill-rule="nonzero">
            <g id="Group-5" transform="translate(698.000000, 260.000000)">
                <g id="wallet" transform="translate(76.000000, 0.000000)">
                    <path d="M23.206376,14.6432566 L22.8356214,14.6432566 L22.8356214,11.2733818 C22.8356214,10.7398855 22.5724833,10.267522 22.1706147,9.98051011 L22.1706147,9.52167199 C22.1706147,8.85609549 21.6340318,8.31464014 20.9744447,8.31464014 L20.6976126,8.31464014 L21.7567941,6.74627999 C22.1118224,6.22059613 21.9768178,5.50140632 21.4558644,5.14310536 L14.2686342,0.20072009 C14.0162868,0.0271360191 13.7121151,-0.0369265128 13.4119113,0.0205442189 C13.1118526,0.0779172943 12.8518598,0.249743552 12.6798862,0.504431178 L6.47639939,9.69012911 L4.75013055,9.69012911 L5.16661257,5.43573246 C5.17130627,5.38778322 5.2021783,5.34623046 5.24524429,5.32987303 C5.7818272,5.12572254 6.24684314,4.74447235 6.55459562,4.25638617 C6.57883839,4.21795842 6.62456576,4.19598575 6.67188996,4.20081974 L9.37948276,4.47074174 C9.57361845,4.48973589 9.74631792,4.34706004 9.76547987,4.15125916 C9.78464181,3.95545829 9.64291115,3.78109296 9.44887224,3.76175702 L6.74127944,3.49183501 C6.42699447,3.4607803 6.12727452,3.60692296 5.95888166,3.87391528 C5.73261584,4.23280217 5.39070089,4.51307575 4.99618737,4.66317348 C4.69922558,4.77616182 4.49531536,5.04530258 4.46395945,5.36566406 L4.04065462,9.69008028 L3.59049403,9.69008028 L4.24916177,2.96136599 C4.27287226,2.71917837 4.48708928,2.5412486 4.72738783,2.56551619 L10.1988979,3.11092662 C10.3929369,3.12982311 10.5657331,2.98724491 10.584895,2.79144403 C10.604057,2.59564316 10.4623263,2.42127783 10.2682874,2.40194189 L4.79677731,1.85653146 C4.16946549,1.79408026 3.60849465,2.25819182 3.54650865,2.8912976 L3.01558723,8.31464014 L2.11144334,8.31464014 C1.4519046,8.31464014 0.915273306,8.85609549 0.915273306,9.52167199 L0.915273306,9.83466043 C0.375690296,10.0853441 0,10.635735 0,11.2733818 L0,23.4166984 C0,24.2897457 0.703862834,25 1.56910217,25 L21.2665676,25 C22.1317585,25 22.8356214,24.2897457 22.8356214,23.4166984 L22.8356214,20.0468725 L23.206376,20.0468725 C23.6440039,20.0468725 24,19.6876438 24,19.2460909 L24,15.444087 C24,15.0024853 23.6440039,14.6432566 23.206376,14.6432566 Z M20.9744447,9.02714049 L20.9744447,9.02714049 C21.2447443,9.02709167 21.4645744,9.24896678 21.4645744,9.52172082 L21.4645744,9.70321505 C21.3996367,9.69491426 21.3336828,9.69017793 21.2665676,9.69017793 L19.7686937,9.69017793 L20.2164348,9.02714049 L20.9744447,9.02714049 Z M13.2633094,0.905603253 C13.3291181,0.808191095 13.428557,0.742468406 13.5433352,0.720495739 C13.5707716,0.715271127 13.5983048,0.712634407 13.6256444,0.712634407 C13.712599,0.712634407 13.7975697,0.738903951 13.8710238,0.789392258 L21.058254,5.73177753 C21.2575189,5.86883814 21.3091981,6.14393594 21.1734193,6.34501025 L18.9143418,9.69008028 L18.3721942,9.69008028 L19.4797644,8.0500404 C19.6593835,7.78407347 19.6741904,7.44559674 19.5182819,7.16664152 C19.3110812,6.79603587 19.2270783,6.3596587 19.2817576,5.93783232 C19.3224042,5.6240138 19.1855608,5.31766599 18.9246486,5.13827137 L15.1988112,2.57616072 C14.9378507,2.39671728 14.6052264,2.38026219 14.3306686,2.53324078 C13.9617043,2.73880729 13.5284798,2.81952022 13.1108848,2.76053582 C12.8011968,2.71668814 12.4871054,2.85780149 12.3101477,3.11976451 L7.87294726,9.69008028 L7.33079964,9.69008028 L13.2633094,0.905603253 Z M13.4187825,6.9549715 C11.8814234,6.9549715 10.6194446,8.16459124 10.5166185,9.69008028 L8.72725073,9.69008028 L12.8934742,3.52098541 C12.8935226,3.52098541 12.8935226,3.52098541 12.8935226,3.52098541 C12.9171847,3.48587797 12.9564279,3.46497953 12.9967358,3.46497953 C13.0021069,3.46497953 13.0074781,3.46537015 13.0128492,3.46610257 C13.5808364,3.54627839 14.1699695,3.43661037 14.6718577,3.15697156 C14.7113429,3.13490124 14.7620543,3.13807507 14.8011525,3.16493055 L18.5270382,5.72709003 C18.5660396,5.75394551 18.5874758,5.80042991 18.5816691,5.84554712 C18.5072956,6.41922904 18.6215899,7.01268637 18.9033576,7.51669052 C18.9259551,7.55716906 18.923197,7.60902456 18.8963896,7.6488195 L17.5178907,9.69008028 L16.3210917,9.69008028 C16.2181688,8.16459124 14.9562384,6.9549715 13.4187825,6.9549715 Z M15.6131158,9.69012911 L11.2244976,9.69012911 C11.3256301,8.55785315 12.2708561,7.66747185 13.4187825,7.66747185 C14.5667573,7.66742302 15.5120317,8.55785315 15.6131158,9.69012911 Z M1.62131363,9.52167199 C1.62131363,9.24891795 1.84114375,9.02704284 2.11144334,9.02704284 L2.94585903,9.02704284 L2.88096971,9.69008028 L1.62131363,9.69008028 L1.62131363,9.52167199 Z M0.706040328,11.2733818 C0.706040328,10.7932058 1.09319876,10.4025318 1.56910217,10.4025318 L21.2665676,10.4025318 C21.742471,10.4025318 22.1295811,10.7932058 22.1295811,11.2733818 L22.1295811,12.2618589 L0.706040328,12.2618589 L0.706040328,11.2733818 Z M22.1295811,23.4166984 C22.1295811,23.8968745 21.742471,24.2875485 21.2665676,24.2875485 L1.56910217,24.2875485 C1.09319876,24.2875485 0.706040328,23.8968745 0.706040328,23.4166984 L0.706040328,22.4282214 L2.60975074,22.4282214 C2.80475742,22.4282214 2.96274671,22.2687486 2.96274671,22.07202 C2.96274671,21.8752914 2.80470903,21.7158187 2.60975074,21.7158187 L0.706040328,21.7158187 L0.706040328,12.9743104 L22.1295811,12.9743104 L22.1295811,14.6432566 L18.7730467,14.6432566 L18.7729983,14.6432566 C17.7154136,14.6432566 16.7993177,15.2653272 16.3645448,16.1657671 C16.3630931,16.1687944 16.3614479,16.1717241 16.3599478,16.1747515 C16.3562703,16.1824175 16.3530766,16.1903765 16.3494958,16.1980913 C16.2977199,16.3090777 16.2527183,16.4239703 16.2160881,16.5425251 C16.2159913,16.5428669 16.2158945,16.5431599 16.2157977,16.5435017 C16.1376499,16.7968709 16.0955033,17.0660605 16.0955033,17.3450646 C16.0955033,18.8348602 17.296609,20.0468725 18.7729499,20.0468725 L18.7729983,20.0468725 L22.1295811,20.0468725 L22.1295811,21.7158187 L4.87018305,21.7158187 C4.67517637,21.7158187 4.51718708,21.8752914 4.51718708,22.07202 C4.51718708,22.2687486 4.67522476,22.4282214 4.87018305,22.4282214 L22.1295811,22.4282214 L22.1295811,23.4166984 Z M23.2940081,19.2460421 C23.2940081,19.2947726 23.2547164,19.334421 23.206376,19.334421 L18.773095,19.334421 C18.0257307,19.334421 17.3741277,18.9125946 17.0399066,18.292526 C17.0247125,18.2643521 17.0101959,18.2357388 16.9963083,18.2067837 C16.9685816,18.1488247 16.9435646,18.0893032 16.9214509,18.0283657 C16.8439322,17.815182 16.8016404,17.5850061 16.8016404,17.3450646 C16.8016404,17.105123 16.8439805,16.8749471 16.9214509,16.6617634 C16.943613,16.6008747 16.96863,16.5413532 16.9963083,16.4833454 C17.0101959,16.4543903 17.0247125,16.425777 17.0399066,16.3976031 C17.3741277,15.7775345 18.0257307,15.3557081 18.773095,15.3557081 L23.206376,15.3557081 C23.254668,15.3557081 23.2940081,15.3953566 23.2940081,15.444087 L23.2940081,19.2460421 Z" id="Shape"></path>
                    <path d="M18.5,16 C17.6728716,16 17,16.6729337 17,17.5000253 C17,18.327117 17.6728716,19 18.5,19 C19.3271284,19 20,18.327117 20,17.5000253 C20,16.6729337 19.3271284,16 18.5,16 Z M18.5,18.2605787 C18.0806081,18.2605787 17.7394088,17.9193736 17.7394088,17.5000253 C17.7394088,17.080677 18.0806081,16.7394213 18.5,16.7394213 C18.9193919,16.7394213 19.2605912,17.0806264 19.2605912,17.5000253 C19.2605912,17.9194243 18.9193919,18.2605787 18.5,18.2605787 Z" id="Shape"></path>
                </g>
            </g>
        </g>
    </g>
</svg>