<?xml version="1.0" encoding="UTF-8"?>
<svg width="32px" height="20px" viewBox="0 0 32 20" version="1.1" xmlns="http://www.w3.org/2000/svg" xmlns:xlink="http://www.w3.org/1999/xlink">
    <!-- Generator: Sketch 60.1 (88133) - https://sketch.com -->
    <title>shipped</title>
    <desc>Created with Sketch.</desc>
    <g id="Page-1" stroke="none" stroke-width="1" fill="none" fill-rule="evenodd" opacity="0.75">
        <g id="Edit-Pickup-Option" transform="translate(-1148.000000, -204.000000)" fill="#4C4C4C" fill-rule="nonzero">
            <g id="Group-5" transform="translate(1034.000000, 199.000000)">
                <g id="shipped" transform="translate(114.000000, 5.000000)">
                    <path d="M29.7599331,8.47869381 L28.931244,5.20364464 C29.1578069,5.15609514 29.3278073,4.95749877 29.3278073,4.719566 L29.3278073,4.19151952 C29.3278073,3.04502073 28.3837429,2.11230945 27.2234282,2.11230945 L23.4489208,2.11230945 L23.4489208,1.02311709 C23.4489208,0.458945327 22.9844199,0 22.4134188,0 L3.1732562,0 C2.60225508,0 2.13775418,0.458945327 2.13775418,1.02311709 L2.13775418,10.0000926 C2.13775418,10.2734714 2.36206711,10.4951632 2.63881765,10.4951632 C2.91550569,10.4951632 3.13988113,10.2735331 3.13988113,10.0000926 L3.13988113,1.02311709 C3.13988113,1.00490007 3.15481866,0.990141197 3.1732562,0.990141197 L22.4133563,0.990141197 C22.4317938,0.990141197 22.4467313,1.00490007 22.4467313,1.02311709 L22.4467313,10.0002161 C22.4467313,10.2735949 22.6710443,10.4952867 22.9477948,10.4952867 C23.2244829,10.4952867 23.4488583,10.2736566 23.4488583,10.0002161 L23.4488583,9.4390085 L29.3594323,9.4390085 C29.3599323,9.4390085 29.3603073,9.43913201 29.3607448,9.43913201 C29.3612448,9.43913201 29.3616823,9.43907025 29.3621198,9.43907025 C30.0894338,9.43956427 30.7069975,9.91123064 30.9191229,10.5611768 L29.3611198,10.5611768 C29.0844318,10.5611768 28.8600564,10.7828068 28.8600564,11.0562474 L28.8600564,12.1123403 C28.8600564,12.9676756 29.5643077,13.6635039 30.4299969,13.6635039 L30.997873,13.6635039 L30.997873,15.8417034 L29.6877455,15.8417034 C29.2573696,14.6138764 28.0760548,13.7294557 26.6888646,13.7294557 C25.3016744,13.7294557 24.1202971,14.6138764 23.6899838,15.8417034 L23.4487333,15.8417034 L23.4487333,12.1122786 C23.4487333,11.8388998 23.2244204,11.617208 22.9476698,11.617208 C22.6709818,11.617208 22.4466063,11.8388381 22.4466063,12.1122786 L22.4466063,15.8415799 L12.051086,15.8415799 C11.6207102,14.6137529 10.4393954,13.7293322 9.05220518,13.7293322 C7.66501497,13.7293322 6.48363766,14.6137529 6.05332432,15.8415799 L3.1732562,15.8415799 C3.15481866,15.8415799 3.13988113,15.826821 3.13988113,15.808604 L3.13988113,14.7194734 L5.31107287,14.7194734 C5.58776091,14.7194734 5.81213635,14.4978433 5.81213635,14.2244028 C5.81213635,13.9509623 5.58782341,13.7293322 5.31107287,13.7293322 L0.501063479,13.7293322 C0.224375438,13.7293322 0,13.9509623 0,14.2244028 C0,14.4978433 0.224312938,14.7194734 0.501063479,14.7194734 L2.13781668,14.7194734 L2.13781668,15.808604 C2.13781668,16.3727757 2.60231758,16.8317211 3.1733187,16.8317211 L5.87982398,16.8317211 C5.87969898,16.842713 5.87894898,16.8536432 5.87894898,16.864697 C5.87894898,18.5935228 7.30251426,20 9.05220518,20 C10.8018961,20 12.2254614,18.5935228 12.2254614,16.864697 C12.2254614,16.8535815 12.2247114,16.842713 12.2245864,16.8317211 L23.5164834,16.8317211 C23.5163584,16.842713 23.5156084,16.8536432 23.5156084,16.864697 C23.5156084,18.5935228 24.9391737,20 26.6888646,20 C28.4385555,20 29.8621208,18.5935228 29.8621208,16.864697 C29.8621208,16.8535815 29.8613708,16.842713 29.8612458,16.8317211 L31.4989365,16.8317211 C31.7756246,16.8317211 32,16.610091 32,16.3366505 L32,11.0561239 C32,9.75240295 31.0264981,8.66920058 29.7599331,8.47869381 Z M23.4489208,3.1023889 L27.2234282,3.1023889 C27.8312419,3.1023889 28.3257428,3.59097547 28.3257428,4.19151952 L28.3257428,4.2244954 L23.4489208,4.2244954 L23.4489208,3.1023889 Z M23.4489208,8.44892906 L23.4489208,5.21457485 L27.901117,5.21457485 L28.7194936,8.44892906 L23.4489208,8.44892906 Z M9.05220518,19.0100441 C7.85501534,19.0100441 6.88101344,18.0477533 6.88101344,16.8648205 C6.88101344,15.6818877 7.85501534,14.7195969 9.05220518,14.7195969 C10.249395,14.7195969 11.2233969,15.6818877 11.2233969,16.8648205 C11.2233969,18.0477533 10.249395,19.0100441 9.05220518,19.0100441 Z M26.6889896,19.0100441 C25.4917998,19.0100441 24.5177979,18.0477533 24.5177979,16.8648205 C24.5177979,15.6818877 25.4917998,14.7195969 26.6889896,14.7195969 C27.8861795,14.7195969 28.8601814,15.6818877 28.8601814,16.8648205 C28.8601814,18.0477533 27.8861795,19.0100441 26.6889896,19.0100441 Z M30.997998,12.6733627 L30.4301219,12.6733627 C30.1169963,12.6733627 29.8622458,12.4216591 29.8622458,12.1122786 L29.8622458,11.5511944 L30.9979355,11.5511944 L30.9979355,12.6733627 L30.997998,12.6733627 Z" id="Shape"></path>
                    <path d="M9,16 C8.44857557,16 8,16.4485756 8,17 C8,17.5514244 8.44857557,18 9,18 C9.55142443,18 10,17.5514244 10,17 C10,16.4485756 9.55142443,16 9,16 Z" id="Path"></path>
                    <path d="M27,16 C26.4485756,16 26,16.4485756 26,17 C26,17.5514244 26.4485756,18 27,18 C27.5514244,18 28,17.5514244 28,17 C28,16.4485756 27.5514244,16 27,16 Z" id="Path"></path>
                    <path d="M20.5275433,14 L13.4724567,14 C13.2115654,14 13,14.2238368 13,14.5 C13,14.7761632 13.2115064,15 13.4724567,15 L20.5275433,15 C20.7884346,15 21,14.7761632 21,14.5 C21,14.2238368 20.7884936,14 20.5275433,14 Z" id="Path"></path>
                    <path d="M8.45944306,12 L1.54055694,12 C1.24206055,12 1,12.2238368 1,12.5 C1,12.7761632 1.24199312,13 1.54055694,13 L8.45944306,13 C8.75793945,13 9,12.7761632 9,12.5 C9,12.2238368 8.75793945,12 8.45944306,12 Z" id="Path"></path>
                    <path d="M16.8616634,5.15145434 C16.6772048,4.94950447 16.3780047,4.94950447 16.1935462,5.15151886 L11.9921334,9.75126588 L9.80650541,7.35838575 C9.62198788,7.15637136 9.32284673,7.15637136 9.13838814,7.35838575 C8.95387062,7.56040014 8.95387062,7.88784282 9.13838814,8.08985721 L11.6581043,10.8485053 C11.7503336,10.9495448 11.871263,11 11.9921334,11 C12.1130039,11 12.2339922,10.9495448 12.3261626,10.8485053 L16.8616045,5.88299032 C17.046122,5.68091141 17.046122,5.35346873 16.8616634,5.15145434 Z" id="Path"></path>
                </g>
            </g>
        </g>
    </g>
</svg>